<?xml version="1.0" encoding="UTF-8" standalone="no"?><!-- Generator: Gravit.io --><svg xmlns="http://www.w3.org/2000/svg" xmlns:xlink="http://www.w3.org/1999/xlink" style="isolation:isolate" viewBox="0 0 496 496" width="496pt" height="496pt"><defs><clipPath id="_clipPath_kOuinQkfYU8Ls3u1jYX77xltufv7E1du"><rect width="496" height="496"/></clipPath></defs><g clip-path="url(#_clipPath_kOuinQkfYU8Ls3u1jYX77xltufv7E1du)"><g><g><g><path d=" M 352 416 L 352 432 L 480 432 L 480 456 C 480 469.232 469.232 480 456 480 L 40 480 C 26.768 480 16 469.232 16 456 L 16 432 L 144 432 L 144 416 L 0 416 L 0 456 C 0 478.056 17.944 496 40 496 L 456 496 C 478.056 496 496 478.056 496 456 L 496 416 L 352 416 L 352 416 Z " fill="rgb(82,127,210)"/><path d=" M 184 464 L 312 464 C 325.232 464 336 453.232 336 440 L 336 416 L 160 416 L 160 440 C 160 453.232 170.768 464 184 464 Z  M 176 432 L 320 432 L 320 440 C 320 444.408 316.416 448 312 448 L 184 448 C 179.584 448 176 444.408 176 440 L 176 432 L 176 432 Z " fill="rgb(82,127,210)"/><rect x="48" y="448" width="16" height="16" transform="matrix(1,0,0,1,0,0)" fill="rgb(82,127,210)"/><rect x="80" y="448" width="16" height="16" transform="matrix(1,0,0,1,0,0)" fill="rgb(82,127,210)"/><rect x="112" y="448" width="16" height="16" transform="matrix(1,0,0,1,0,0)" fill="rgb(82,127,210)"/><path d=" M 464 120 L 464 400 L 480 400 L 480 120 C 480 97.944 462.056 80 440 80 L 416 80 L 416 96 L 440 96 C 453.232 96 464 106.768 464 120 Z " fill="rgb(82,127,210)"/><path d=" M 32 120 C 32 106.768 42.768 96 56 96 L 80 96 L 80 80 L 56 80 C 33.944 80 16 97.944 16 120 L 16 400 L 32 400 L 32 120 L 32 120 Z " fill="rgb(82,127,210)"/><path d=" M 432 400 L 448 400 L 448 128 C 448 119.176 440.824 112 432 112 L 416 112 L 416 128 L 432 128 L 432 400 L 432 400 Z " fill="rgb(82,127,210)"/><path d=" M 48 128 L 48 400 L 64 400 L 64 128 L 80 128 L 80 112 L 64 112 C 55.176 112 48 119.176 48 128 Z " fill="rgb(82,127,210)"/><path d=" M 400 0 L 96 0 L 96 80 L 400 80 L 400 0 L 400 0 Z  M 384 64 L 112 64 L 112 16 L 384 16 L 384 64 L 384 64 Z " fill="rgb(82,127,210)"/><rect x="128" y="32" width="16" height="16" transform="matrix(1,0,0,1,0,0)" fill="rgb(82,127,210)"/><rect x="160" y="32" width="16" height="16" transform="matrix(1,0,0,1,0,0)" fill="rgb(82,127,210)"/><rect x="192" y="32" width="16" height="16" transform="matrix(1,0,0,1,0,0)" fill="rgb(82,127,210)"/><path d=" M 400 96 L 384 96 L 384 352 L 112 352 L 112 96 L 96 96 L 96 368 L 400 368 L 400 96 Z " fill="rgb(82,127,210)"/><path d=" M 368 256 L 328 256 L 328 272 L 352 272 L 352 320 L 328 320 L 328 336 L 368 336 L 368 256 Z " fill="rgb(82,127,210)"/><path d=" M 168 272 L 168 256 L 128 256 L 128 336 L 168 336 L 168 320 L 144 320 L 144 272 L 168 272 Z " fill="rgb(82,127,210)"/><rect x="168" y="288" width="32" height="16" transform="matrix(1,0,0,1,0,0)" fill="rgb(82,127,210)"/><rect x="296" y="288" width="32" height="16" transform="matrix(1,0,0,1,0,0)" fill="rgb(82,127,210)"/><rect x="232" y="288" width="32" height="16" transform="matrix(1,0,0,1,0,0)" fill="rgb(82,127,210)"/><rect x="128" y="96" width="16" height="16" transform="matrix(1,0,0,1,0,0)" fill="rgb(82,127,210)"/><rect x="160" y="96" width="208" height="16" transform="matrix(1,0,0,1,0,0)" fill="rgb(82,127,210)"/><rect x="128" y="224" width="208" height="16" transform="matrix(1,0,0,1,0,0)" fill="rgb(82,127,210)"/><rect x="352" y="224" width="16" height="16" transform="matrix(1,0,0,1,0,0)" fill="rgb(82,127,210)"/><path d=" M 208 208 L 208 160 C 208 142.352 193.648 128 176 128 C 158.352 128 144 142.352 144 160 L 144 208 L 160 208 L 160 184 L 192 184 L 192 208 L 208 208 L 208 208 Z  M 160 168 L 160 160 C 160 151.176 167.176 144 176 144 C 184.824 144 192 151.176 192 160 L 192 168 L 160 168 L 160 168 Z " fill="rgb(82,127,210)"/><path d=" M 260 184 C 275.44 184 288 171.44 288 156 C 288 140.56 275.44 128 260 128 L 224 128 L 224 208 L 240 208 L 240 184 L 260 184 L 260 184 Z  M 240 144 L 260 144 C 266.616 144 272 149.384 272 156 C 272 162.616 266.616 168 260 168 L 240 168 L 240 144 L 240 144 Z " fill="rgb(82,127,210)"/><path d=" M 304 192 L 304 208 L 352 208 L 352 192 L 336 192 L 336 144 L 352 144 L 352 128 L 304 128 L 304 144 L 320 144 L 320 192 L 304 192 Z " fill="rgb(82,127,210)"/></g></g></g></g></svg>