<?xml version="1.0" encoding="UTF-8" standalone="no"?><!-- Generator: Gravit.io --><svg xmlns="http://www.w3.org/2000/svg" xmlns:xlink="http://www.w3.org/1999/xlink" style="isolation:isolate" viewBox="0 0 100 100" width="100pt" height="100pt"><defs><clipPath id="_clipPath_B5bN382n9AQMkU1oZEwg4Cz7VXb09YL3"><rect width="100" height="100"/></clipPath></defs><g clip-path="url(#_clipPath_B5bN382n9AQMkU1oZEwg4Cz7VXb09YL3)"><rect x="29.688" y="35.938" width="3.125" height="3.125" transform="matrix(1,0,0,1,0,0)" fill="rgb(82,127,210)"/><rect x="35.938" y="35.938" width="3.125" height="3.125" transform="matrix(1,0,0,1,0,0)" fill="rgb(82,127,210)"/><rect x="42.188" y="35.938" width="3.125" height="3.125" transform="matrix(1,0,0,1,0,0)" fill="rgb(82,127,210)"/><path d=" M 84.325 14.063 C 81.741 14.063 79.638 16.166 79.638 18.75 C 79.638 20.784 80.948 22.503 82.764 23.15 L 82.806 46.872 C 82.806 47.291 82.644 47.684 82.35 47.978 C 82.055 48.275 81.663 48.438 81.245 48.438 L 76.563 48.438 L 76.563 32.813 C 76.563 31.089 75.161 29.688 73.438 29.688 L 26.563 29.688 C 24.839 29.688 23.438 31.089 23.438 32.813 L 23.438 48.438 L 18.75 48.438 C 17.889 48.438 17.188 47.738 17.188 46.875 L 17.188 29.648 C 18.117 29.58 18.5 29.355 18.684 28.606 L 19.166 27.142 C 19.302 26.727 19.614 26.394 20.019 26.223 C 20.42 26.055 20.877 26.069 21.269 26.264 L 23.675 27.458 L 27.461 23.672 L 26.267 21.267 C 26.072 20.875 26.058 20.419 26.225 20.016 C 26.394 19.611 26.73 19.3 27.145 19.164 L 29.688 18.327 L 29.688 12.923 L 27.144 12.088 C 26.728 11.95 26.392 11.639 26.223 11.234 C 26.055 10.83 26.07 10.375 26.264 9.984 L 27.459 7.578 L 23.673 3.792 L 21.266 4.984 C 20.875 5.178 20.42 5.194 20.017 5.025 C 19.613 4.856 19.302 4.522 19.166 4.106 L 18.328 1.563 L 12.922 1.563 L 12.084 4.108 C 11.948 4.523 11.638 4.856 11.231 5.027 C 10.83 5.194 10.375 5.178 9.983 4.984 L 7.577 3.791 L 3.791 7.578 L 4.984 9.983 C 5.18 10.375 5.195 10.83 5.025 11.233 C 4.858 11.638 4.522 11.948 4.106 12.084 L 1.563 12.923 L 1.563 18.328 L 4.106 19.166 C 4.523 19.302 4.858 19.613 5.027 20.017 C 5.195 20.42 5.18 20.877 4.986 21.267 L 3.791 23.673 L 7.577 27.459 L 9.984 26.266 C 10.373 26.069 10.828 26.055 11.233 26.225 C 11.638 26.394 11.948 26.728 12.084 27.144 L 12.534 28.497 C 12.741 29.322 13.13 29.569 14.063 29.645 L 14.063 46.875 C 14.063 49.459 16.166 51.563 18.75 51.563 L 23.438 51.563 L 23.438 54.688 L 18.75 54.688 C 16.166 54.688 14.063 56.791 14.063 59.375 L 14.063 79.845 C 11.002 80.469 8.588 82.889 7.969 85.953 C 7.916 85.952 7.866 85.938 7.813 85.938 C 4.366 85.938 1.563 88.741 1.563 92.188 C 1.563 95.634 4.366 98.438 7.813 98.438 L 23.438 98.438 C 26.884 98.438 29.688 95.634 29.688 92.188 C 29.688 88.741 26.884 85.938 23.438 85.938 C 23.384 85.938 23.334 85.952 23.281 85.953 C 22.662 82.889 20.248 80.469 17.188 79.845 L 17.188 59.375 C 17.188 58.513 17.889 57.813 18.75 57.813 L 23.438 57.813 L 23.438 73.438 C 23.438 75.161 24.839 76.563 26.563 76.563 L 73.438 76.563 C 75.161 76.563 76.563 75.161 76.563 73.438 L 76.563 57.813 L 81.25 57.813 C 82.111 57.813 82.813 58.513 82.813 59.375 L 82.813 76.563 L 85.938 76.563 L 85.938 59.375 C 85.938 56.791 83.834 54.688 81.25 54.688 L 76.563 54.688 L 76.563 51.563 L 81.245 51.563 C 82.498 51.563 83.677 51.073 84.563 50.186 C 85.448 49.3 85.934 48.12 85.933 46.866 L 85.891 23.148 C 87.705 22.5 89.014 20.783 89.014 18.75 C 89.013 16.166 86.909 14.063 84.325 14.063 Z  M 12.438 23.341 C 11.197 22.822 9.797 22.869 8.594 23.467 L 8.2 23.663 L 7.589 23.05 L 7.784 22.656 C 8.38 21.453 8.427 20.055 7.911 18.814 C 7.392 17.572 6.363 16.619 5.083 16.195 L 4.688 16.066 L 4.688 15.184 L 5.084 15.053 C 6.363 14.631 7.394 13.678 7.911 12.436 C 8.428 11.197 8.383 9.797 7.784 8.592 L 7.589 8.2 L 8.2 7.587 L 8.592 7.783 C 9.797 8.381 11.198 8.43 12.436 7.911 C 13.678 7.391 14.633 6.361 15.053 5.084 L 15.183 4.688 L 16.066 4.688 L 16.195 5.084 C 16.616 6.361 17.569 7.392 18.811 7.911 C 20.053 8.43 21.453 8.383 22.655 7.784 L 23.048 7.589 L 23.659 8.202 L 23.466 8.594 C 22.869 9.797 22.823 11.197 23.339 12.436 C 23.858 13.678 24.888 14.631 26.167 15.055 L 26.563 15.184 L 26.563 16.066 L 26.166 16.197 C 24.888 16.619 23.856 17.572 23.338 18.814 C 22.822 20.055 22.869 21.453 23.466 22.658 L 23.661 23.05 L 23.05 23.663 L 22.658 23.467 C 21.453 22.869 20.052 22.82 18.813 23.341 C 17.57 23.859 16.617 24.889 16.197 26.167 L 16.069 26.559 C 15.781 26.559 15.47 26.559 15.181 26.559 L 15.052 26.167 C 14.633 24.889 13.678 23.859 12.438 23.341 Z  M 20.247 86.842 C 18.423 87.936 17.188 89.911 17.188 92.188 L 20.313 92.188 C 20.313 90.464 21.714 89.063 23.438 89.063 C 25.161 89.063 26.563 90.464 26.563 92.188 C 26.563 93.911 25.161 95.313 23.438 95.313 L 7.813 95.313 C 6.089 95.313 4.688 93.911 4.688 92.188 C 4.688 90.464 6.089 89.063 7.813 89.063 C 9.536 89.063 10.938 90.464 10.938 92.188 L 14.063 92.188 C 14.063 89.911 12.827 87.936 11.003 86.842 C 11.327 84.57 13.266 82.813 15.625 82.813 C 17.984 82.813 19.923 84.57 20.247 86.842 Z  M 73.438 32.813 L 73.438 42.188 L 26.563 42.188 L 26.563 32.813 L 73.438 32.813 Z  M 26.563 73.438 L 26.563 45.313 L 73.438 45.313 L 73.439 73.438 L 26.563 73.438 Z  M 84.325 17.188 C 85.186 17.188 85.888 17.888 85.888 18.75 C 85.888 19.613 85.186 20.313 84.325 20.313 C 83.464 20.313 82.763 19.613 82.763 18.75 C 82.763 17.888 83.464 17.188 84.325 17.188 Z " fill="rgb(82,127,210)"/><path d=" M 95.827 8.97 L 97.923 6.655 C 90.453 -0.108 78.297 -0.108 70.827 6.655 L 72.923 8.97 C 79.239 3.255 89.511 3.255 95.827 8.97 Z " fill="rgb(82,127,210)"/><path d=" M 75.55 11.381 L 77.731 13.619 C 81.395 10.045 87.353 10.045 91.017 13.619 L 93.198 11.381 C 88.334 6.633 80.416 6.633 75.55 11.381 Z " fill="rgb(82,127,210)"/><path d=" M 20.313 15.625 C 20.313 13.041 18.209 10.938 15.625 10.938 C 13.041 10.938 10.938 13.041 10.938 15.625 C 10.938 18.209 13.041 20.313 15.625 20.313 C 18.209 20.313 20.313 18.209 20.313 15.625 Z  M 14.063 15.625 C 14.063 14.763 14.764 14.063 15.625 14.063 C 16.486 14.063 17.188 14.763 17.188 15.625 C 17.188 16.488 16.486 17.188 15.625 17.188 C 14.764 17.188 14.063 16.488 14.063 15.625 Z " fill="rgb(82,127,210)"/><path d=" M 89.063 73.438 L 89.063 98.438 L 98.438 98.438 L 98.438 73.438 L 89.063 73.438 Z  M 95.313 95.313 L 92.188 95.313 L 92.188 76.563 L 95.313 76.563 L 95.313 95.313 Z " fill="rgb(82,127,210)"/><path d=" M 76.563 98.438 L 85.938 98.438 L 85.938 79.688 L 76.563 79.688 L 76.563 98.438 Z  M 79.688 82.813 L 82.813 82.813 L 82.813 95.313 L 79.688 95.313 L 79.688 82.813 Z " fill="rgb(82,127,210)"/><path d=" M 64.063 98.438 L 73.438 98.438 L 73.438 85.938 L 64.063 85.938 L 64.063 98.438 Z  M 67.188 89.063 L 70.313 89.063 L 70.313 95.313 L 67.188 95.313 L 67.188 89.063 Z " fill="rgb(82,127,210)"/><path d=" M 29.688 70.313 L 48.438 70.313 L 48.438 48.438 L 29.688 48.438 L 29.688 70.313 Z  M 32.813 51.563 L 45.313 51.563 L 45.313 67.188 L 32.813 67.188 L 32.813 51.563 Z " fill="rgb(82,127,210)"/><rect x="51.563" y="48.438" width="18.75" height="3.125" transform="matrix(1,0,0,1,0,0)" fill="rgb(82,127,210)"/><rect x="51.563" y="54.688" width="18.75" height="3.125" transform="matrix(1,0,0,1,0,0)" fill="rgb(82,127,210)"/><rect x="51.563" y="60.938" width="18.75" height="3.125" transform="matrix(1,0,0,1,0,0)" fill="rgb(82,127,210)"/><rect x="51.563" y="67.188" width="18.75" height="3.125" transform="matrix(1,0,0,1,0,0)" fill="rgb(82,127,210)"/></g></svg>