<?xml version="1.0" encoding="UTF-8" standalone="no"?><!-- Generator: Gravit.io --><svg xmlns="http://www.w3.org/2000/svg" xmlns:xlink="http://www.w3.org/1999/xlink" style="isolation:isolate" viewBox="0 0 512 512" width="512pt" height="512pt"><defs><clipPath id="_clipPath_LB9g8k2GxEtSYsmocHMquaavGyGorlgv"><rect width="512" height="512"/></clipPath></defs><g clip-path="url(#_clipPath_LB9g8k2GxEtSYsmocHMquaavGyGorlgv)"><path d=" M 40 320 C 35.584 319.995 32.005 316.416 32 312 L 32 104 C 32.005 99.584 35.584 96.005 40 96 L 352 96 C 356.416 96.005 359.995 99.584 360 104 L 360 264 L 376 264 L 376 104 C 375.985 90.751 365.249 80.015 352 80 L 40 80 C 26.751 80.015 16.015 90.751 16 104 L 16 312 C 16.015 325.249 26.751 335.985 40 336 L 120 336 L 120 384 L 80 384 C 76.97 384 74.2 385.712 72.845 388.422 L 56.845 420.422 C 55.604 422.902 55.737 425.848 57.194 428.206 C 58.652 430.565 61.227 432 64 432 L 200 432 L 200 416 L 76.944 416 L 84.944 400 L 200 400 L 200 384 L 136 384 L 136 336 L 160 336 L 160 352 C 160 356.418 163.582 360 168 360 C 172.418 360 176 356.418 176 352 L 176 336 L 208 336 L 208 320 L 40 320 Z " fill="rgb(82,127,210)"/><path d=" M 272 352 L 280 352 L 280 344 C 280 339.582 276.418 336 272 336 L 264 336 L 264 344 C 264 348.418 267.582 352 272 352 L 272 352 Z " fill="rgb(82,127,210)"/><path d=" M 312 344 L 312 336 L 304 336 C 299.582 336 296 339.582 296 344 L 296 352 L 304 352 C 308.418 352 312 348.418 312 344 Z " fill="rgb(82,127,210)"/><path d=" M 280 368 C 280 372.418 283.582 376 288 376 C 292.418 376 296 372.418 296 368 L 296 364 C 296 362.939 295.579 361.922 294.828 361.172 C 294.078 360.421 293.061 360 292 360 L 284 360 C 282.939 360 281.922 360.421 281.172 361.172 C 280.421 361.922 280 362.939 280 364 L 280 368 Z " fill="rgb(82,127,210)"/><path d=" M 408 264 C 403.582 264 400 267.582 400 272 C 400 276.418 403.582 280 408 280 C 429.323 279.998 449.547 289.464 463.203 305.841 C 452.595 299.39 440.416 295.985 428 296 L 414.627 296 C 399.186 295.956 384.281 301.659 372.815 312 L 362.228 312 C 366.021 304.569 368 296.344 368 288 C 368 283.582 364.418 280 360 280 L 334.627 280 C 328.258 279.983 322.147 282.514 317.656 287.03 L 316.731 287.955 C 300.807 278.404 281.177 277.391 264.355 285.254 C 260.109 281.84 254.821 279.986 249.373 280 L 224 280 C 219.582 280 216 283.582 216 288 C 216.049 302.635 222.127 316.603 232.802 326.614 C 232.272 329.715 232.004 332.854 232 336 L 232 352 C 231.99 363.45 235.511 374.624 242.083 384 L 240 384 C 226.751 384.015 216.015 394.751 216 408 L 216 424 C 216 428.418 219.582 432 224 432 L 344 432 C 349.899 432.006 355.684 430.372 360.708 427.279 C 361.997 430.151 364.852 431.999 368 432 L 428 432 C 465.538 431.957 495.957 401.538 496 364 L 496 352 C 495.945 303.422 456.578 264.055 408 264 L 408 264 Z  M 351.126 296 C 349.486 303.403 345.594 310.117 339.986 315.219 C 337.457 308.917 333.805 303.126 329.208 298.128 C 330.679 296.758 332.616 295.997 334.627 296 L 351.126 296 Z  M 328 336 L 328 352 C 328.009 364.593 322.077 376.453 311.996 384 L 304 384 C 297.197 383.998 290.714 386.89 286.171 391.954 C 264.825 390.953 248.026 373.369 248 352 L 248 336 C 248 313.909 265.909 296 288 296 C 310.091 296 328 313.909 328 336 Z  M 232.892 296 L 248.862 296 C 244.866 299.904 241.474 304.38 238.795 309.283 C 235.975 305.286 233.968 300.772 232.892 296 L 232.892 296 Z  M 232 408 C 232.005 403.584 235.584 400.005 240 400 L 259.19 400 C 265.565 403.843 272.646 406.366 280.015 407.421 C 280.01 407.614 280 407.806 280 408 L 280 416 L 232 416 L 232 408 Z  M 428 416 L 376 416 L 376 408 C 376.005 403.584 379.584 400.005 384 400 L 408 400 C 411.671 400 414.871 397.501 415.762 393.94 L 417.939 385.224 C 420.46 375.095 429.562 367.989 440 368 L 440 352 C 422.217 351.981 406.712 364.087 402.417 381.343 L 401.754 384 L 384 384 C 381.274 383.999 378.569 384.464 376 385.376 L 376 376 L 360 376 L 360 400 C 359.99 408.832 352.832 415.99 344 416 L 296 416 L 296 408 C 296.005 403.584 299.584 400.005 304 400 L 344 400 L 344 384 L 333.96 384 C 340.503 374.612 344.008 363.443 344 352 L 344 336 C 344 334.779 343.947 333.571 343.87 332.369 L 344.469 331.969 C 346.29 330.755 348.035 329.429 349.693 328 L 376 328 C 378.122 328 380.156 327.157 381.656 325.657 C 390.382 316.884 402.254 311.966 414.627 312 L 428 312 C 456.719 312 480 335.281 480 364 C 480 392.719 456.719 416 428 416 Z " fill="rgb(82,127,210)"/></g></svg>