<?xml version="1.0" encoding="UTF-8" standalone="no"?><!-- Generator: Gravit.io --><svg xmlns="http://www.w3.org/2000/svg" xmlns:xlink="http://www.w3.org/1999/xlink" style="isolation:isolate" viewBox="0 0 512 512" width="512pt" height="512pt"><defs><clipPath id="_clipPath_OTnlcKXx9eXfiD0pr2mtjOT2xGFrPEFb"><rect width="512" height="512"/></clipPath></defs><g clip-path="url(#_clipPath_OTnlcKXx9eXfiD0pr2mtjOT2xGFrPEFb)"><path d=" M 504 340 C 503.989 328.959 495.041 320.011 484 320 L 432 320 L 432 304 C 432 299.582 428.418 296 424 296 L 416 296 L 416 256 C 416 251.582 412.418 248 408 248 L 264 248 L 264 168 L 336 168 C 361.245 167.99 382.169 148.429 383.877 123.242 C 385.584 98.054 367.493 75.848 342.48 72.43 C 335.069 34.964 302.192 7.973 264 8 C 238.093 8.085 213.81 20.631 198.75 41.71 C 174.755 36.008 149.619 44.599 134.133 63.794 C 118.646 82.989 115.565 109.373 126.211 131.62 C 136.857 153.867 159.337 168.019 184 168 L 248 168 L 248 248 L 104 248 C 99.582 248 96 251.582 96 256 L 96 296 L 88 296 C 83.582 296 80 299.582 80 304 L 80 320 L 28 320 C 16.959 320.011 8.011 328.959 8 340 L 8 364 C 8.005 368.333 9.423 372.546 12.04 376 C 9.423 379.454 8.005 383.667 8 388 L 8 412 C 8.005 416.333 9.423 420.546 12.04 424 C 9.423 427.454 8.005 431.667 8 436 L 8 460 C 8.011 471.041 16.959 479.989 28 480 L 80 480 L 80 496 C 80 500.418 83.582 504 88 504 L 120 504 C 124.418 504 128 500.418 128 496 L 128 480 L 180 480 C 191.041 479.989 199.989 471.041 200 460 L 200 436 C 199.995 431.667 198.577 427.454 195.96 424 C 198.577 420.546 199.995 416.333 200 412 L 200 388 C 199.995 383.667 198.577 379.454 195.96 376 C 198.577 372.546 199.995 368.333 200 364 L 200 340 C 199.989 328.959 191.041 320.011 180 320 L 128 320 L 128 304 C 128 299.582 124.418 296 120 296 L 112 296 L 112 264 L 400 264 L 400 296 L 392 296 C 387.582 296 384 299.582 384 304 L 384 320 L 332 320 C 320.959 320.011 312.011 328.959 312 340 L 312 364 C 312.005 368.333 313.423 372.546 316.04 376 C 313.423 379.454 312.005 383.667 312 388 L 312 412 C 312.005 416.333 313.423 420.546 316.04 424 C 313.423 427.454 312.005 431.667 312 436 L 312 460 C 312.011 471.041 320.959 479.989 332 480 L 384 480 L 384 496 C 384 500.418 387.582 504 392 504 L 424 504 C 428.418 504 432 500.418 432 496 L 432 480 L 484 480 C 495.041 479.989 503.989 471.041 504 460 L 504 436 C 503.995 431.667 502.577 427.454 499.96 424 C 502.577 420.546 503.995 416.333 504 412 L 504 388 C 503.995 383.667 502.577 379.454 499.96 376 C 502.577 372.546 503.995 368.333 504 364 L 504 340 Z  M 96 312 L 112 312 L 112 320 L 96 320 L 96 312 Z  M 112 488 L 96 488 L 96 480 L 112 480 L 112 488 Z  M 184 460 C 184 462.209 182.209 464 180 464 L 28 464 C 25.791 464 24 462.209 24 460 L 24 436 C 24 433.791 25.791 432 28 432 L 180 432 C 182.209 432 184 433.791 184 436 L 184 460 Z  M 184 412 C 184 414.209 182.209 416 180 416 L 28 416 C 25.791 416 24 414.209 24 412 L 24 388 C 24 385.791 25.791 384 28 384 L 180 384 C 182.209 384 184 385.791 184 388 L 184 412 Z  M 180 336 C 182.209 336 184 337.791 184 340 L 184 364 C 184 366.209 182.209 368 180 368 L 28 368 C 25.791 368 24 366.209 24 364 L 24 340 C 24 337.791 25.791 336 28 336 L 180 336 Z  M 184 152 C 164.95 151.989 147.709 140.714 140.063 123.266 C 132.417 105.818 135.812 85.499 148.717 71.485 C 161.621 57.471 181.592 52.415 199.61 58.6 C 203.185 59.821 207.126 58.379 209.07 55.14 C 223.159 31.552 250.733 19.59 277.584 25.418 C 304.434 31.246 324.568 53.563 327.61 80.87 C 328.051 84.928 331.478 88.001 335.56 88 L 336 88 C 353.673 88 368 102.327 368 120 C 368 137.673 353.673 152 336 152 L 184 152 Z  M 400 312 L 416 312 L 416 320 L 400 320 L 400 312 Z  M 416 488 L 400 488 L 400 480 L 416 480 L 416 488 Z  M 488 460 C 488 462.209 486.209 464 484 464 L 332 464 C 329.791 464 328 462.209 328 460 L 328 436 C 328 433.791 329.791 432 332 432 L 484 432 C 486.209 432 488 433.791 488 436 L 488 460 Z  M 488 412 C 488 414.209 486.209 416 484 416 L 332 416 C 329.791 416 328 414.209 328 412 L 328 388 C 328 385.791 329.791 384 332 384 L 484 384 C 486.209 384 488 385.791 488 388 L 488 412 Z  M 488 364 C 488 366.209 486.209 368 484 368 L 332 368 C 329.791 368 328 366.209 328 364 L 328 340 C 328 337.791 329.791 336 332 336 L 484 336 C 486.209 336 488 337.791 488 340 L 488 364 Z " fill="rgb(117,195,255)"/><circle vector-effect="non-scaling-stroke" cx="344" cy="352" r="8" fill="rgb(117,195,255)"/><circle vector-effect="non-scaling-stroke" cx="368" cy="352" r="8" fill="rgb(117,195,255)"/><path d=" M 432 360 L 472 360 C 476.418 360 480 356.418 480 352 C 480 347.582 476.418 344 472 344 L 432 344 C 427.582 344 424 347.582 424 352 C 424 356.418 427.582 360 432 360 Z " fill="rgb(117,195,255)"/><circle vector-effect="non-scaling-stroke" cx="344" cy="400" r="8" fill="rgb(117,195,255)"/><circle vector-effect="non-scaling-stroke" cx="368" cy="400" r="8" fill="rgb(117,195,255)"/><path d=" M 432 408 L 472 408 C 476.418 408 480 404.418 480 400 C 480 395.582 476.418 392 472 392 L 432 392 C 427.582 392 424 395.582 424 400 C 424 404.418 427.582 408 432 408 Z " fill="rgb(117,195,255)"/><circle vector-effect="non-scaling-stroke" cx="344" cy="448" r="8" fill="rgb(117,195,255)"/><circle vector-effect="non-scaling-stroke" cx="368" cy="448" r="8" fill="rgb(117,195,255)"/><path d=" M 472 440 L 432 440 C 427.582 440 424 443.582 424 448 C 424 452.418 427.582 456 432 456 L 472 456 C 476.418 456 480 452.418 480 448 C 480 443.582 476.418 440 472 440 Z " fill="rgb(117,195,255)"/><circle vector-effect="non-scaling-stroke" cx="40" cy="352" r="8" fill="rgb(117,195,255)"/><circle vector-effect="non-scaling-stroke" cx="64" cy="352" r="8" fill="rgb(117,195,255)"/><path d=" M 128 360 L 168 360 C 172.418 360 176 356.418 176 352 C 176 347.582 172.418 344 168 344 L 128 344 C 123.582 344 120 347.582 120 352 C 120 356.418 123.582 360 128 360 Z " fill="rgb(117,195,255)"/><circle vector-effect="non-scaling-stroke" cx="40" cy="400" r="8" fill="rgb(117,195,255)"/><circle vector-effect="non-scaling-stroke" cx="64" cy="400" r="8" fill="rgb(117,195,255)"/><path d=" M 128 408 L 168 408 C 172.418 408 176 404.418 176 400 C 176 395.582 172.418 392 168 392 L 128 392 C 123.582 392 120 395.582 120 400 C 120 404.418 123.582 408 128 408 Z " fill="rgb(117,195,255)"/><circle vector-effect="non-scaling-stroke" cx="40" cy="448" r="8" fill="rgb(117,195,255)"/><circle vector-effect="non-scaling-stroke" cx="64" cy="448" r="8" fill="rgb(117,195,255)"/><path d=" M 168 440 L 128 440 C 123.582 440 120 443.582 120 448 C 120 452.418 123.582 456 128 456 L 168 456 C 172.418 456 176 452.418 176 448 C 176 443.582 172.418 440 168 440 Z " fill="rgb(117,195,255)"/></g></svg>