<?xml version="1.0" encoding="UTF-8" standalone="no"?><!-- Generator: Gravit.io --><svg xmlns="http://www.w3.org/2000/svg" xmlns:xlink="http://www.w3.org/1999/xlink" style="isolation:isolate" viewBox="0 0 512 512" width="512pt" height="512pt"><defs><clipPath id="_clipPath_rDKpGQauc1TPznzu88xpkd2WfJwRKrBK"><rect width="512" height="512"/></clipPath></defs><g clip-path="url(#_clipPath_rDKpGQauc1TPznzu88xpkd2WfJwRKrBK)"><path d=" M 488 464 L 278.528 464 C 276.108 457.225 270.775 451.892 264 449.472 L 264 423.872 C 298.607 423.893 333.093 419.806 366.736 411.696 C 399.424 402.84 416 390.824 416 376 L 416 304 C 416 294.896 409.672 286.88 397.36 280 C 409.704 273.096 416 265.08 416 256 L 416 184 C 416 174.896 409.672 166.88 397.36 160 C 409.704 153.096 416 145.08 416 136 L 416 64 C 416 32.488 335.512 16 256 16 C 176.488 16 96 32.488 96 64 L 96 136 C 96 145.08 102.296 153.104 114.648 160 C 102.328 166.872 96 174.896 96 184 L 96 256 C 96 265.08 102.296 273.104 114.648 280 C 102.328 286.872 96 294.896 96 304 L 96 376 C 96 390.824 112.576 402.84 145.296 411.728 C 178.929 419.833 213.404 423.918 248 423.896 L 248 449.496 C 241.23 451.911 235.898 457.234 233.472 464 L 24 464 C 19.582 464 16 467.582 16 472 C 16 476.418 19.582 480 24 480 L 233.472 480 C 236.811 489.585 245.85 496.008 256 496.008 C 266.15 496.008 275.189 489.585 278.528 480 L 488 480 C 492.418 480 496 476.418 496 472 C 496 467.582 492.418 464 488 464 Z  M 256 32 C 349.168 32 400 53.144 400 64 C 400 67.496 392.168 76.232 362.576 84.272 C 327.664 92.528 291.871 96.466 256 96 C 220.14 96.467 184.357 92.531 149.456 84.28 C 119.832 76.232 112 67.496 112 64 C 112 53.144 162.832 32 256 32 Z  M 112 86.352 C 122.408 92.368 133.619 96.872 145.296 99.728 C 181.543 108.406 218.732 112.529 256 112 C 293.279 112.528 330.478 108.403 366.736 99.72 C 378.401 96.862 389.601 92.361 400 86.352 L 400 136 C 400 139.496 392.168 148.232 362.576 156.272 C 327.664 164.528 291.871 168.466 256 168 C 220.14 168.467 184.357 164.531 149.456 156.28 C 119.832 148.232 112 139.496 112 136 L 112 86.352 Z  M 134.616 168.504 C 137.976 169.616 141.504 170.696 145.296 171.704 C 181.542 180.39 218.731 184.521 256 184 C 293.279 184.528 330.478 180.403 366.736 171.72 C 370.52 170.688 374.032 169.616 377.384 168.52 C 395.032 175.04 400 181.264 400 184 C 400 187.496 392.168 196.232 362.576 204.272 C 327.664 212.528 291.871 216.466 256 216 C 220.14 216.467 184.357 212.531 149.456 204.28 C 119.832 196.232 112 187.496 112 184 C 112 181.264 116.968 175.04 134.616 168.504 Z  M 112 206.352 C 122.408 212.368 133.619 216.872 145.296 219.728 C 181.543 228.406 218.732 232.529 256 232 C 293.279 232.528 330.478 228.403 366.736 219.72 C 378.401 216.862 389.601 212.361 400 206.352 L 400 256 C 400 259.496 392.168 268.232 362.576 276.272 C 327.664 284.528 291.871 288.466 256 288 C 220.14 288.467 184.357 284.531 149.456 276.28 C 119.832 268.232 112 259.496 112 256 L 112 206.352 Z  M 134.616 288.504 C 137.976 289.616 141.504 290.696 145.296 291.704 C 181.542 300.39 218.731 304.521 256 304 C 293.279 304.528 330.478 300.403 366.736 291.72 C 370.52 290.688 374.032 289.616 377.384 288.52 C 395.032 295.04 400 301.264 400 304 C 400 307.496 392.168 316.232 362.576 324.272 C 327.664 332.528 291.871 336.466 256 336 C 220.14 336.467 184.357 332.531 149.456 324.28 C 119.832 316.232 112 307.496 112 304 C 112 301.264 116.968 295.04 134.616 288.504 Z  M 112 376 L 112 326.352 C 122.408 332.368 133.619 336.872 145.296 339.728 C 181.543 348.406 218.732 352.529 256 352 C 293.279 352.528 330.478 348.403 366.736 339.72 C 378.401 336.862 389.601 332.361 400 326.352 L 400 376 C 400 379.496 392.168 388.232 362.576 396.272 C 327.664 404.528 291.871 408.466 256 408 C 220.14 408.467 184.357 404.531 149.456 396.28 C 119.832 388.232 112 379.496 112 376 Z  M 256 480 C 251.582 480 248 476.418 248 472 C 248 467.582 251.582 464 256 464 C 260.418 464 264 467.582 264 472 C 264 476.418 260.418 480 256 480 Z " fill="rgb(82,127,210)"/></g></svg>