<?xml version="1.0" encoding="UTF-8" standalone="no"?><!-- Generator: Gravit.io --><svg xmlns="http://www.w3.org/2000/svg" xmlns:xlink="http://www.w3.org/1999/xlink" style="isolation:isolate" viewBox="0 0 703.8 199.4" width="703.8pt" height="199.4pt"><defs><clipPath id="_clipPath_ZMOM9vw9LYf3lG6SLFvwcXu1WqY184hj"><rect width="703.8" height="199.4"/></clipPath></defs><g clip-path="url(#_clipPath_ZMOM9vw9LYf3lG6SLFvwcXu1WqY184hj)"><g><g><g><path d=" M 687.962 26.469 L 687.962 16.844 C 687.966 16.204 687.715 15.589 687.265 15.135 L 672.827 0.698 C 672.373 0.247 671.758 -0.004 671.119 0 L 632.619 0 C 628.632 0 625.4 3.232 625.4 7.219 L 625.4 69.781 C 625.4 73.768 628.632 77 632.619 77 L 649.462 77 L 649.462 72.188 L 632.619 72.188 C 631.29 72.188 630.212 71.11 630.212 69.781 L 630.212 7.219 C 630.212 5.89 631.29 4.813 632.619 4.813 L 668.712 4.813 L 668.712 14.438 C 668.712 17.095 670.867 19.25 673.525 19.25 L 683.15 19.25 L 683.15 26.469 L 687.962 26.469 Z " fill="rgb(82,127,210)"/><path d=" M 647.056 43.313 L 651.869 43.313 C 653.198 43.313 654.275 44.39 654.275 45.719 L 659.087 45.719 C 659.087 41.732 655.856 38.5 651.869 38.5 L 647.056 38.5 C 643.069 38.5 639.837 41.732 639.837 45.719 C 639.837 49.706 643.069 52.938 647.056 52.938 L 651.869 52.938 C 653.198 52.938 654.275 54.015 654.275 55.344 C 654.275 56.673 653.198 57.75 651.869 57.75 L 647.056 57.75 C 645.727 57.75 644.65 56.673 644.65 55.344 L 639.837 55.344 C 639.837 59.331 643.069 62.563 647.056 62.563 L 651.869 62.563 C 655.856 62.563 659.087 59.331 659.087 55.344 C 659.087 51.357 655.856 48.125 651.869 48.125 L 647.056 48.125 C 645.727 48.125 644.65 47.048 644.65 45.719 C 644.65 44.39 645.727 43.313 647.056 43.313 Z " fill="rgb(82,127,210)"/><path d=" M 680.744 52.938 L 680.744 48.125 C 680.744 42.809 676.434 38.5 671.119 38.5 C 665.803 38.5 661.494 42.809 661.494 48.125 L 661.494 52.938 C 661.494 58.253 665.803 62.563 671.119 62.563 L 683.15 62.563 L 683.15 57.75 L 679.396 57.75 C 680.261 56.293 680.726 54.632 680.744 52.938 Z  M 675.931 52.938 C 675.931 55.595 673.777 57.75 671.119 57.75 C 668.461 57.75 666.306 55.595 666.306 52.938 L 666.306 48.125 C 666.306 45.467 668.461 43.313 671.119 43.313 C 673.777 43.313 675.931 45.467 675.931 48.125 L 675.931 52.938 Z " fill="rgb(82,127,210)"/><path d=" M 690.369 57.75 L 690.369 38.5 L 685.556 38.5 L 685.556 60.156 C 685.556 61.485 686.633 62.563 687.962 62.563 L 702.4 62.563 L 702.4 57.75 L 690.369 57.75 Z " fill="rgb(82,127,210)"/></g></g></g><path d=" M 295.039 87.944 C 295.037 87.943 295.036 87.941 295.034 87.94 L 271.241 64.26 C 269.458 62.487 266.575 62.493 264.801 64.276 C 263.026 66.059 263.033 68.942 264.816 70.716 L 280.791 86.614 L 184.354 86.614 C 181.839 86.614 179.8 88.652 179.8 91.167 C 179.8 93.682 181.839 95.721 184.354 95.721 L 280.791 95.721 L 264.816 111.619 C 263.033 113.393 263.027 116.276 264.801 118.059 C 266.575 119.842 269.458 119.848 271.241 118.074 L 295.035 94.395 C 295.036 94.394 295.037 94.392 295.039 94.391 C 296.822 92.611 296.817 89.718 295.039 87.944 Z " fill="rgb(82,127,210)"/><path d=" M 605.766 146.875 C 605.764 146.873 605.763 146.872 605.762 146.87 L 583.428 124.645 C 581.755 122.98 579.049 122.986 577.384 124.659 C 575.718 126.332 575.725 129.039 577.398 130.704 L 592.393 145.626 L 501.874 145.626 C 499.513 145.626 497.6 147.539 497.6 149.9 C 497.6 152.261 499.513 154.174 501.874 154.174 L 592.392 154.174 L 577.398 169.096 C 575.725 170.762 575.719 173.468 577.384 175.141 C 579.049 176.814 581.756 176.82 583.429 175.155 L 605.762 152.93 C 605.763 152.928 605.764 152.927 605.766 152.926 C 607.44 151.255 607.435 148.54 605.766 146.875 Z " fill="rgb(82,127,210)"/><path d=" M 499.645 59.097 C 499.646 59.098 499.647 59.1 499.648 59.101 L 521.819 81.165 C 523.479 82.817 526.166 82.811 527.819 81.15 C 529.472 79.489 529.466 76.803 527.805 75.15 L 512.92 60.337 L 602.776 60.337 C 605.12 60.337 607.019 58.437 607.019 56.094 C 607.019 53.75 605.12 51.851 602.776 51.851 L 512.92 51.851 L 527.805 37.038 C 529.466 35.385 529.472 32.698 527.819 31.038 C 526.166 29.376 523.479 29.37 521.818 31.023 L 499.648 53.086 C 499.647 53.088 499.646 53.089 499.644 53.09 C 497.983 54.749 497.988 57.444 499.645 59.097 Z " fill="rgb(82,127,210)"/><path d=" M 144.59 62.86 C 148.793 62.86 152.2 59.453 152.2 55.25 L 152.2 24.81 C 152.2 20.607 148.793 17.2 144.59 17.2 L 7.61 17.2 C 3.407 17.2 0 20.607 0 24.81 L 0 55.25 C 0 59.453 3.407 62.86 7.61 62.86 L 15.22 62.86 L 15.22 70.47 L 7.61 70.47 C 3.407 70.47 0 73.877 0 78.08 L 0 108.52 C 0 112.723 3.407 116.13 7.61 116.13 L 15.22 116.13 L 15.22 123.74 L 7.61 123.74 C 3.407 123.74 0 127.147 0 131.35 L 0 161.79 C 0 165.993 3.407 169.4 7.61 169.4 L 144.59 169.4 C 148.793 169.4 152.2 165.993 152.2 161.79 L 152.2 131.35 C 152.2 127.147 148.793 123.74 144.59 123.74 L 136.98 123.74 L 136.98 116.13 L 144.59 116.13 C 148.793 116.13 152.2 112.723 152.2 108.52 L 152.2 78.08 C 152.2 73.877 148.793 70.47 144.59 70.47 L 136.98 70.47 L 136.98 62.86 L 144.59 62.86 Z  M 144.59 128.813 C 145.991 128.813 147.127 129.949 147.127 131.35 L 147.127 161.79 C 147.127 163.191 145.991 164.327 144.59 164.327 L 7.61 164.327 C 6.209 164.327 5.073 163.191 5.073 161.79 L 5.073 131.35 C 5.073 129.949 6.209 128.813 7.61 128.813 L 144.59 128.813 Z  M 20.293 123.74 L 20.293 116.13 L 25.367 116.13 L 25.367 123.74 L 20.293 123.74 Z  M 30.44 123.74 L 30.44 116.13 L 121.76 116.13 L 121.76 123.74 L 30.44 123.74 Z  M 126.833 123.74 L 126.833 116.13 L 131.907 116.13 L 131.907 123.74 L 126.833 123.74 Z  M 144.59 75.543 C 145.991 75.543 147.127 76.679 147.127 78.08 L 147.127 108.52 C 147.127 109.921 145.991 111.057 144.59 111.057 L 7.61 111.057 C 6.209 111.057 5.073 109.921 5.073 108.52 L 5.073 78.08 C 5.073 76.679 6.209 75.543 7.61 75.543 L 144.59 75.543 Z  M 20.293 70.47 L 20.293 62.86 L 25.367 62.86 L 25.367 70.47 L 20.293 70.47 Z  M 30.44 70.47 L 30.44 62.86 L 121.76 62.86 L 121.76 70.47 L 30.44 70.47 Z  M 126.833 70.47 L 126.833 62.86 L 131.907 62.86 L 131.907 70.47 L 126.833 70.47 Z  M 7.61 57.787 C 6.209 57.787 5.073 56.651 5.073 55.25 L 5.073 24.81 C 5.073 23.409 6.209 22.273 7.61 22.273 L 144.59 22.273 C 145.991 22.273 147.127 23.409 147.127 24.81 L 147.127 55.25 C 147.127 56.651 145.991 57.787 144.59 57.787 L 7.61 57.787 Z " fill="rgb(82,127,210)"/><path d=" M 81.173 37.493 L 29.973 37.493 C 28.572 33.531 24.224 31.454 20.262 32.855 C 16.3 34.257 14.223 38.604 15.624 42.567 C 17.025 46.529 21.373 48.606 25.335 47.205 C 27.502 46.439 29.207 44.734 29.973 42.567 L 81.173 42.567 C 82.574 42.567 83.71 41.431 83.71 40.03 C 83.71 38.629 82.574 37.493 81.173 37.493 Z  M 22.83 42.567 C 21.429 42.567 20.293 41.431 20.293 40.03 C 20.293 38.629 21.429 37.493 22.83 37.493 C 24.231 37.493 25.367 38.629 25.367 40.03 C 25.367 41.431 24.231 42.567 22.83 42.567 Z " fill="rgb(82,127,210)"/><rect x="111.613" y="27.347" width="5.073" height="5.073" transform="matrix(1,0,0,1,0,0)" fill="rgb(82,127,210)"/><rect x="121.76" y="27.347" width="5.073" height="5.073" transform="matrix(1,0,0,1,0,0)" fill="rgb(82,127,210)"/><rect x="131.907" y="27.347" width="5.073" height="5.073" transform="matrix(1,0,0,1,0,0)" fill="rgb(82,127,210)"/><rect x="101.467" y="27.347" width="5.073" height="5.073" transform="matrix(1,0,0,1,0,0)" fill="rgb(82,127,210)"/><rect x="91.32" y="27.347" width="5.073" height="5.073" transform="matrix(1,0,0,1,0,0)" fill="rgb(82,127,210)"/><rect x="111.613" y="37.493" width="5.073" height="5.073" transform="matrix(1,0,0,1,0,0)" fill="rgb(82,127,210)"/><rect x="121.76" y="37.493" width="5.073" height="5.073" transform="matrix(1,0,0,1,0,0)" fill="rgb(82,127,210)"/><rect x="131.907" y="37.493" width="5.073" height="5.073" transform="matrix(1,0,0,1,0,0)" fill="rgb(82,127,210)"/><rect x="101.467" y="37.493" width="5.073" height="5.073" transform="matrix(1,0,0,1,0,0)" fill="rgb(82,127,210)"/><rect x="91.32" y="37.493" width="5.073" height="5.073" transform="matrix(1,0,0,1,0,0)" fill="rgb(82,127,210)"/><rect x="111.613" y="47.64" width="5.073" height="5.073" transform="matrix(1,0,0,1,0,0)" fill="rgb(82,127,210)"/><rect x="121.76" y="47.64" width="5.073" height="5.073" transform="matrix(1,0,0,1,0,0)" fill="rgb(82,127,210)"/><rect x="131.907" y="47.64" width="5.073" height="5.073" transform="matrix(1,0,0,1,0,0)" fill="rgb(82,127,210)"/><rect x="101.467" y="47.64" width="5.073" height="5.073" transform="matrix(1,0,0,1,0,0)" fill="rgb(82,127,210)"/><rect x="91.32" y="47.64" width="5.073" height="5.073" transform="matrix(1,0,0,1,0,0)" fill="rgb(82,127,210)"/><path d=" M 81.173 90.763 L 29.973 90.763 C 28.572 86.801 24.224 84.724 20.262 86.125 C 16.3 87.527 14.223 91.874 15.624 95.837 C 17.025 99.799 21.373 101.876 25.335 100.475 C 27.502 99.709 29.207 98.004 29.973 95.837 L 81.173 95.837 C 82.574 95.837 83.71 94.701 83.71 93.3 C 83.71 91.899 82.574 90.763 81.173 90.763 Z  M 22.83 95.837 C 21.429 95.837 20.293 94.701 20.293 93.3 C 20.293 91.899 21.429 90.763 22.83 90.763 C 24.231 90.763 25.367 91.899 25.367 93.3 C 25.367 94.701 24.231 95.837 22.83 95.837 Z " fill="rgb(82,127,210)"/><rect x="111.613" y="80.617" width="5.073" height="5.073" transform="matrix(1,0,0,1,0,0)" fill="rgb(82,127,210)"/><rect x="121.76" y="80.617" width="5.073" height="5.073" transform="matrix(1,0,0,1,0,0)" fill="rgb(82,127,210)"/><rect x="131.907" y="80.617" width="5.073" height="5.073" transform="matrix(1,0,0,1,0,0)" fill="rgb(82,127,210)"/><rect x="101.467" y="80.617" width="5.073" height="5.073" transform="matrix(1,0,0,1,0,0)" fill="rgb(82,127,210)"/><rect x="91.32" y="80.617" width="5.073" height="5.073" transform="matrix(1,0,0,1,0,0)" fill="rgb(82,127,210)"/><rect x="111.613" y="90.763" width="5.073" height="5.073" transform="matrix(1,0,0,1,0,0)" fill="rgb(82,127,210)"/><rect x="121.76" y="90.763" width="5.073" height="5.073" transform="matrix(1,0,0,1,0,0)" fill="rgb(82,127,210)"/><rect x="131.907" y="90.763" width="5.073" height="5.073" transform="matrix(1,0,0,1,0,0)" fill="rgb(82,127,210)"/><rect x="101.467" y="90.763" width="5.073" height="5.073" transform="matrix(1,0,0,1,0,0)" fill="rgb(82,127,210)"/><rect x="91.32" y="90.763" width="5.073" height="5.073" transform="matrix(1,0,0,1,0,0)" fill="rgb(82,127,210)"/><rect x="111.613" y="100.91" width="5.073" height="5.073" transform="matrix(1,0,0,1,0,0)" fill="rgb(82,127,210)"/><rect x="121.76" y="100.91" width="5.073" height="5.073" transform="matrix(1,0,0,1,0,0)" fill="rgb(82,127,210)"/><rect x="131.907" y="100.91" width="5.073" height="5.073" transform="matrix(1,0,0,1,0,0)" fill="rgb(82,127,210)"/><rect x="101.467" y="100.91" width="5.073" height="5.073" transform="matrix(1,0,0,1,0,0)" fill="rgb(82,127,210)"/><rect x="91.32" y="100.91" width="5.073" height="5.073" transform="matrix(1,0,0,1,0,0)" fill="rgb(82,127,210)"/><path d=" M 81.173 144.033 L 29.973 144.033 C 28.572 140.071 24.224 137.994 20.262 139.395 C 16.3 140.797 14.223 145.144 15.624 149.107 C 17.025 153.069 21.373 155.146 25.335 153.745 C 27.502 152.979 29.207 151.274 29.973 149.107 L 81.173 149.107 C 82.574 149.107 83.71 147.971 83.71 146.57 C 83.71 145.169 82.574 144.033 81.173 144.033 Z  M 22.83 149.107 C 21.429 149.107 20.293 147.971 20.293 146.57 C 20.293 145.169 21.429 144.033 22.83 144.033 C 24.231 144.033 25.367 145.169 25.367 146.57 C 25.367 147.971 24.231 149.107 22.83 149.107 Z " fill="rgb(82,127,210)"/><rect x="111.613" y="133.887" width="5.073" height="5.073" transform="matrix(1,0,0,1,0,0)" fill="rgb(82,127,210)"/><rect x="121.76" y="133.887" width="5.073" height="5.073" transform="matrix(1,0,0,1,0,0)" fill="rgb(82,127,210)"/><rect x="131.907" y="133.887" width="5.073" height="5.073" transform="matrix(1,0,0,1,0,0)" fill="rgb(82,127,210)"/><rect x="101.467" y="133.887" width="5.073" height="5.073" transform="matrix(1,0,0,1,0,0)" fill="rgb(82,127,210)"/><rect x="91.32" y="133.887" width="5.073" height="5.073" transform="matrix(1,0,0,1,0,0)" fill="rgb(82,127,210)"/><rect x="111.613" y="144.033" width="5.073" height="5.073" transform="matrix(1,0,0,1,0,0)" fill="rgb(82,127,210)"/><rect x="121.76" y="144.033" width="5.073" height="5.073" transform="matrix(1,0,0,1,0,0)" fill="rgb(82,127,210)"/><rect x="131.907" y="144.033" width="5.073" height="5.073" transform="matrix(1,0,0,1,0,0)" fill="rgb(82,127,210)"/><rect x="101.467" y="144.033" width="5.073" height="5.073" transform="matrix(1,0,0,1,0,0)" fill="rgb(82,127,210)"/><rect x="91.32" y="144.033" width="5.073" height="5.073" transform="matrix(1,0,0,1,0,0)" fill="rgb(82,127,210)"/><rect x="111.613" y="154.18" width="5.073" height="5.073" transform="matrix(1,0,0,1,0,0)" fill="rgb(82,127,210)"/><rect x="121.76" y="154.18" width="5.073" height="5.073" transform="matrix(1,0,0,1,0,0)" fill="rgb(82,127,210)"/><rect x="131.907" y="154.18" width="5.073" height="5.073" transform="matrix(1,0,0,1,0,0)" fill="rgb(82,127,210)"/><rect x="101.467" y="154.18" width="5.073" height="5.073" transform="matrix(1,0,0,1,0,0)" fill="rgb(82,127,210)"/><rect x="91.32" y="154.18" width="5.073" height="5.073" transform="matrix(1,0,0,1,0,0)" fill="rgb(82,127,210)"/><path d=" M 459.763 164.057 L 390.723 164.057 C 389.925 161.824 388.168 160.067 385.935 159.269 L 385.935 150.831 C 397.341 150.838 408.707 149.491 419.796 146.818 C 430.569 143.899 436.033 139.939 436.033 135.053 L 436.033 111.323 C 436.033 108.322 433.947 105.68 429.889 103.412 C 433.958 101.137 436.033 98.495 436.033 95.502 L 436.033 71.772 C 436.033 68.771 433.947 66.129 429.889 63.861 C 433.958 61.586 436.033 58.944 436.033 55.951 L 436.033 32.22 C 436.033 21.834 409.504 16.4 383.298 16.4 C 357.091 16.4 330.563 21.834 330.563 32.22 L 330.563 55.951 C 330.563 58.944 332.638 61.588 336.709 63.861 C 332.649 66.126 330.563 68.771 330.563 71.772 L 330.563 95.502 C 330.563 98.495 332.638 101.14 336.709 103.412 C 332.649 105.677 330.563 108.322 330.563 111.323 L 330.563 135.053 C 330.563 139.939 336.026 143.899 346.811 146.829 C 357.896 149.5 369.259 150.847 380.661 150.839 L 380.661 159.277 C 378.43 160.073 376.672 161.827 375.873 164.057 L 306.832 164.057 C 305.376 164.057 304.196 165.238 304.196 166.694 C 304.196 168.15 305.376 169.331 306.832 169.331 L 375.873 169.331 C 376.973 172.49 379.952 174.607 383.298 174.607 C 386.643 174.607 389.622 172.49 390.723 169.331 L 459.763 169.331 C 461.219 169.331 462.4 168.15 462.4 166.694 C 462.4 165.238 461.219 164.057 459.763 164.057 Z  M 383.298 21.674 C 414.005 21.674 430.759 28.642 430.759 32.22 C 430.759 33.373 428.178 36.252 418.424 38.902 C 406.918 41.623 395.121 42.921 383.298 42.767 C 371.479 42.921 359.685 41.624 348.182 38.905 C 338.418 36.252 335.837 33.373 335.837 32.22 C 335.837 28.642 352.59 21.674 383.298 21.674 Z  M 335.837 39.588 C 339.267 41.57 342.962 43.055 346.811 43.996 C 358.758 46.856 371.015 48.215 383.298 48.041 C 395.585 48.215 407.845 46.855 419.796 43.993 C 423.64 43.051 427.332 41.568 430.759 39.588 L 430.759 55.951 C 430.759 57.103 428.178 59.983 418.424 62.633 C 406.918 65.354 395.121 66.652 383.298 66.498 C 371.479 66.652 359.685 65.355 348.182 62.635 C 338.418 59.983 335.837 57.103 335.837 55.951 L 335.837 39.588 Z  M 343.291 66.664 C 344.398 67.031 345.561 67.387 346.811 67.719 C 358.757 70.582 371.014 71.943 383.298 71.772 C 395.585 71.946 407.845 70.586 419.796 67.724 C 421.043 67.384 422.2 67.031 423.305 66.669 C 429.122 68.818 430.759 70.87 430.759 71.772 C 430.759 72.924 428.178 75.803 418.424 78.453 C 406.918 81.174 395.121 82.472 383.298 82.318 C 371.479 82.472 359.685 81.175 348.182 78.456 C 338.418 75.803 335.837 72.924 335.837 71.772 C 335.837 70.87 337.474 68.818 343.291 66.664 Z  M 335.837 79.139 C 339.267 81.121 342.962 82.606 346.811 83.547 C 358.758 86.407 371.015 87.766 383.298 87.592 C 395.585 87.766 407.845 86.406 419.796 83.545 C 423.64 82.602 427.332 81.119 430.759 79.139 L 430.759 95.502 C 430.759 96.654 428.178 99.534 418.424 102.184 C 406.918 104.905 395.121 106.203 383.298 106.049 C 371.479 106.203 359.685 104.906 348.182 102.186 C 338.418 99.534 335.837 96.654 335.837 95.502 L 335.837 79.139 Z  M 343.291 106.215 C 344.398 106.582 345.561 106.938 346.811 107.27 C 358.757 110.133 371.014 111.494 383.298 111.323 C 395.585 111.497 407.845 110.137 419.796 107.275 C 421.043 106.935 422.2 106.582 423.305 106.221 C 429.122 108.369 430.759 110.421 430.759 111.323 C 430.759 112.475 428.178 115.354 418.424 118.004 C 406.918 120.725 395.121 122.023 383.298 121.87 C 371.479 122.023 359.685 120.726 348.182 118.007 C 338.418 115.354 335.837 112.475 335.837 111.323 C 335.837 110.421 337.474 108.369 343.291 106.215 Z  M 335.837 135.053 L 335.837 118.69 C 339.267 120.672 342.962 122.157 346.811 123.098 C 358.758 125.958 371.015 127.317 383.298 127.143 C 395.585 127.317 407.845 125.957 419.796 123.096 C 423.64 122.153 427.332 120.67 430.759 118.69 L 430.759 135.053 C 430.759 136.205 428.178 139.085 418.424 141.735 C 406.918 144.456 395.121 145.754 383.298 145.6 C 371.479 145.754 359.685 144.457 348.182 141.737 C 338.418 139.085 335.837 136.205 335.837 135.053 Z  M 383.298 169.331 C 381.842 169.331 380.661 168.15 380.661 166.694 C 380.661 165.238 381.842 164.057 383.298 164.057 C 384.754 164.057 385.935 165.238 385.935 166.694 C 385.935 168.15 384.754 169.331 383.298 169.331 Z " fill="rgb(82,127,210)"/><path d=" M 694.217 199.4 L 636.717 199.4 C 631.434 199.4 627.133 195.099 627.133 189.817 L 627.133 116.983 C 627.133 111.701 631.434 107.4 636.717 107.4 L 694.217 107.4 C 699.499 107.4 703.8 111.701 703.8 116.983 L 703.8 189.817 C 703.8 195.099 699.499 199.4 694.217 199.4 Z  M 636.717 111.233 C 633.547 111.233 630.967 113.813 630.967 116.983 L 630.967 189.817 C 630.967 192.987 633.547 195.567 636.717 195.567 L 694.217 195.567 C 697.387 195.567 699.967 192.987 699.967 189.817 L 699.967 116.983 C 699.967 113.813 697.387 111.233 694.217 111.233 L 636.717 111.233 Z " fill="rgb(82,127,210)"/><path d=" M 690.383 187.9 L 640.55 187.9 C 639.492 187.9 638.633 187.041 638.633 185.983 L 638.633 139.983 C 638.633 138.925 639.492 138.067 640.55 138.067 L 690.383 138.067 C 691.441 138.067 692.3 138.925 692.3 139.983 L 692.3 185.983 C 692.3 187.041 691.441 187.9 690.383 187.9 Z  M 642.467 184.067 L 688.467 184.067 L 688.467 141.9 L 642.467 141.9 L 642.467 184.067 Z " fill="rgb(82,127,210)"/><path d=" M 655.883 187.9 C 654.825 187.9 653.967 187.041 653.967 185.983 L 653.967 139.983 C 653.967 138.925 654.825 138.067 655.883 138.067 C 656.941 138.067 657.8 138.925 657.8 139.983 L 657.8 185.983 C 657.8 187.041 656.941 187.9 655.883 187.9 Z " fill="rgb(82,127,210)"/><path d=" M 690.383 153.4 L 640.55 153.4 C 639.492 153.4 638.633 152.541 638.633 151.483 C 638.633 150.425 639.492 149.567 640.55 149.567 L 690.383 149.567 C 691.441 149.567 692.3 150.425 692.3 151.483 C 692.3 152.541 691.441 153.4 690.383 153.4 Z " fill="rgb(82,127,210)"/><path d=" M 690.383 164.9 L 640.55 164.9 C 639.492 164.9 638.633 164.041 638.633 162.983 C 638.633 161.925 639.492 161.067 640.55 161.067 L 690.383 161.067 C 691.441 161.067 692.3 161.925 692.3 162.983 C 692.3 164.041 691.441 164.9 690.383 164.9 Z " fill="rgb(82,127,210)"/><path d=" M 690.383 176.4 L 640.55 176.4 C 639.492 176.4 638.633 175.541 638.633 174.483 C 638.633 173.425 639.492 172.567 640.55 172.567 L 690.383 172.567 C 691.441 172.567 692.3 173.425 692.3 174.483 C 692.3 175.541 691.441 176.4 690.383 176.4 Z " fill="rgb(82,127,210)"/></g></svg>