<?xml version="1.0" encoding="UTF-8" standalone="no"?><!-- Generator: Gravit.io --><svg xmlns="http://www.w3.org/2000/svg" xmlns:xlink="http://www.w3.org/1999/xlink" style="isolation:isolate" viewBox="0 0 512 512" width="512pt" height="512pt"><defs><clipPath id="_clipPath_LBGVXAZuyoDzobN4kUn4o8qpG2QhU6gJ"><rect width="512" height="512"/></clipPath></defs><g clip-path="url(#_clipPath_LBGVXAZuyoDzobN4kUn4o8qpG2QhU6gJ)"><path d=" M 350.56 160.08 C 347.233 150.461 338.178 144.007 328 144 L 320 144 L 320 128 L 328 128 C 341.238 127.96 351.96 117.238 352 104 L 352 40 C 351.96 26.762 341.238 16.04 328 16 L 40 16 C 26.762 16.04 16.04 26.762 16 40 L 16 104 C 16.04 117.238 26.762 127.96 40 128 L 48 128 L 48 144 L 40 144 C 26.762 144.04 16.04 154.762 16 168 L 16 232 C 16.04 245.238 26.762 255.96 40 256 L 48 256 L 48 272 L 40 272 C 26.762 272.04 16.04 282.762 16 296 L 16 360 C 16.04 373.238 26.762 383.96 40 384 L 192 384 L 192 448 C 192 479.52 268.48 496 344 496 C 419.52 496 496 479.52 496 448 L 496 208 C 496 177.36 423.92 161.04 350.56 160.08 Z  M 40 112 C 35.582 112 32 108.418 32 104 L 32 40 C 32 35.582 35.582 32 40 32 L 328 32 C 332.418 32 336 35.582 336 40 L 336 104 C 336 108.418 332.418 112 328 112 L 40 112 Z  M 304 128 L 304 144 L 272 144 L 272 128 L 304 128 Z  M 256 128 L 256 144 L 112 144 L 112 128 L 256 128 Z  M 96 128 L 96 144 L 64 144 L 64 128 L 96 128 Z  M 192 368 L 40 368 C 35.582 368 32 364.418 32 360 L 32 296 C 32 291.582 35.582 288 40 288 L 192 288 L 192 368 Z  M 64 272 L 64 256 L 96 256 L 96 272 L 64 272 Z  M 192 272 L 112 272 L 112 256 L 192 256 L 192 272 Z  M 192 208 L 192 240 L 40 240 C 35.582 240 32 236.418 32 232 L 32 168 C 32 163.582 35.582 160 40 160 L 328 160 C 328.381 160.042 328.756 160.122 329.12 160.24 C 258.72 162.24 192 178.56 192 208 Z  M 480 448 C 480 458.88 432 480 344 480 C 256 480 208 458.88 208 448 L 208 390.56 C 234.32 407.28 289.28 416 344 416 C 398.72 416 453.68 407.28 480 390.56 L 480 448 Z  M 480 368 C 480 378.88 432 400 344 400 C 256 400 208 378.88 208 368 L 208 310.56 C 234.32 327.28 289.28 336 344 336 C 398.72 336 453.68 327.28 480 310.56 L 480 368 Z  M 480 288 C 480 298.88 432 320 344 320 C 256 320 208 298.88 208 288 L 208 230.56 C 234.32 247.28 289.28 256 344 256 C 398.72 256 453.68 247.28 480 230.56 L 480 288 Z  M 344 240 C 256 240 208 218.88 208 208 C 208 197.12 256 176 344 176 C 432 176 480 197.12 480 208 C 480 218.88 432 240 344 240 Z " fill="rgb(82,127,210)"/><path d=" M 336 280 L 352 280 L 352 296 L 336 296 L 336 280 Z " fill="rgb(82,127,210)"/><path d=" M 336 368 L 352 368 L 352 384 L 336 384 L 336 368 Z " fill="rgb(82,127,210)"/><path d=" M 336 440 L 352 440 L 352 456 L 336 456 L 336 440 Z " fill="rgb(82,127,210)"/><path d=" M 88 176 L 56 176 C 51.582 176 48 179.582 48 184 L 48 216 C 48 220.418 51.582 224 56 224 L 88 224 C 92.418 224 96 220.418 96 216 L 96 184 C 96 179.582 92.418 176 88 176 Z  M 80 208 L 64 208 L 64 192 L 80 192 L 80 208 Z " fill="rgb(82,127,210)"/><path d=" M 152 176 L 120 176 C 115.582 176 112 179.582 112 184 L 112 216 C 112 220.418 115.582 224 120 224 L 152 224 C 156.418 224 160 220.418 160 216 L 160 184 C 160 179.582 156.418 176 152 176 Z  M 144 208 L 128 208 L 128 192 L 144 192 L 144 208 Z " fill="rgb(82,127,210)"/><path d=" M 88 48 L 56 48 C 51.582 48 48 51.582 48 56 L 48 88 C 48 92.418 51.582 96 56 96 L 88 96 C 92.418 96 96 92.418 96 88 L 96 56 C 96 51.582 92.418 48 88 48 Z  M 80 80 L 64 80 L 64 64 L 80 64 L 80 80 Z " fill="rgb(82,127,210)"/><path d=" M 152 48 L 120 48 C 115.582 48 112 51.582 112 56 L 112 88 C 112 92.418 115.582 96 120 96 L 152 96 C 156.418 96 160 92.418 160 88 L 160 56 C 160 51.582 156.418 48 152 48 Z  M 144 80 L 128 80 L 128 64 L 144 64 L 144 80 Z " fill="rgb(82,127,210)"/><path d=" M 176 48 L 288 48 L 288 64 L 176 64 L 176 48 Z " fill="rgb(82,127,210)"/><path d=" M 304 48 L 320 48 L 320 64 L 304 64 L 304 48 Z " fill="rgb(82,127,210)"/><path d=" M 176 80 L 288 80 L 288 96 L 176 96 L 176 80 Z " fill="rgb(82,127,210)"/><path d=" M 304 80 L 320 80 L 320 96 L 304 96 L 304 80 Z " fill="rgb(82,127,210)"/><path d=" M 88 304 L 56 304 C 51.582 304 48 307.582 48 312 L 48 344 C 48 348.418 51.582 352 56 352 L 88 352 C 92.418 352 96 348.418 96 344 L 96 312 C 96 307.582 92.418 304 88 304 Z  M 80 336 L 64 336 L 64 320 L 80 320 L 80 336 Z " fill="rgb(82,127,210)"/><path d=" M 152 304 L 120 304 C 115.582 304 112 307.582 112 312 L 112 344 C 112 348.418 115.582 352 120 352 L 152 352 C 156.418 352 160 348.418 160 344 L 160 312 C 160 307.582 156.418 304 152 304 Z  M 144 336 L 128 336 L 128 320 L 144 320 L 144 336 Z " fill="rgb(82,127,210)"/></g></svg>