<?xml version="1.0" encoding="UTF-8" standalone="no"?><!-- Generator: Gravit.io --><svg xmlns="http://www.w3.org/2000/svg" xmlns:xlink="http://www.w3.org/1999/xlink" style="isolation:isolate" viewBox="0 0 512 512" width="512pt" height="512pt"><defs><clipPath id="_clipPath_sQleN9gqDmK1ItyuBZPl3AkwCQa8ySfN"><rect width="512" height="512"/></clipPath></defs><g clip-path="url(#_clipPath_sQleN9gqDmK1ItyuBZPl3AkwCQa8ySfN)"><g><g><path d=" M 489.739 0 L 22.261 0 C 9.984 0 0 9.984 0 22.261 L 0 489.739 C 0 502.016 9.984 512 22.25 512 L 489.739 512 C 502.016 512 512 502.016 512 489.739 L 512 22.261 C 512 9.984 502.016 0 489.739 0 Z  M 178.087 356.174 L 178.087 244.87 L 333.913 244.87 L 333.913 356.174 L 178.087 356.174 L 178.087 356.174 Z  M 333.913 378.435 L 333.913 489.739 L 178.087 489.739 L 178.087 378.435 L 333.913 378.435 L 333.913 378.435 Z  M 333.913 111.304 L 333.913 222.608 L 178.087 222.608 L 178.087 111.304 L 333.913 111.304 L 333.913 111.304 Z  M 489.739 111.304 L 489.739 222.608 L 356.174 222.608 L 356.174 111.304 L 489.739 111.304 L 489.739 111.304 Z  M 155.826 222.609 L 22.261 222.609 L 22.261 111.304 L 155.826 111.304 L 155.826 222.609 L 155.826 222.609 Z  M 22.261 244.87 L 155.826 244.87 L 155.826 356.174 L 22.261 356.174 L 22.261 244.87 L 22.261 244.87 Z  M 356.174 244.87 L 489.739 244.87 L 489.739 356.174 L 356.174 356.174 L 356.174 244.87 L 356.174 244.87 Z  M 489.739 22.261 L 489.739 89.044 L 22.261 89.044 L 22.261 22.261 L 489.739 22.261 L 489.739 22.261 Z  M 22.261 378.435 L 155.826 378.435 L 155.826 489.739 L 22.261 489.739 L 22.261 378.435 L 22.261 378.435 Z  M 356.174 489.739 L 356.174 378.435 L 489.739 378.435 L 489.739 489.739 L 356.174 489.739 L 356.174 489.739 Z " fill="rgb(82,127,210)"/></g></g></g></svg>