<?xml version="1.0" encoding="UTF-8" standalone="no"?><!-- Generator: Gravit.io --><svg xmlns="http://www.w3.org/2000/svg" xmlns:xlink="http://www.w3.org/1999/xlink" style="isolation:isolate" viewBox="0 0 512 512" width="512pt" height="512pt"><defs><clipPath id="_clipPath_pWR5ToOEMLXRbtC4jCMqM3l8YQudbz6f"><rect width="512" height="512"/></clipPath></defs><g clip-path="url(#_clipPath_pWR5ToOEMLXRbtC4jCMqM3l8YQudbz6f)"><path d=" M 153.384 203.243 C 151.013 203.243 148.731 203.629 146.592 204.332 L 146.592 196.519 C 146.592 184.503 136.817 174.727 124.801 174.727 C 122.194 174.727 119.693 175.188 117.374 176.032 C 115.03 166.528 106.436 159.457 96.218 159.457 C 86 159.457 77.406 166.527 75.062 176.032 C 72.743 175.188 70.242 174.727 67.635 174.727 C 55.619 174.727 45.843 184.502 45.843 196.462 L 45.243 276.024 L 34.707 266.024 C 27.039 258.748 15.205 258.447 7.177 265.327 C -1.34 272.627 -2.403 285.556 4.806 294.147 C 6.733 296.443 61.046 361.383 62.999 363.296 C 55.803 368.041 51.042 376.193 51.042 385.438 L 51.042 504.5 C 51.042 508.643 54.4 512 58.542 512 C 62.684 512 66.042 508.643 66.042 504.5 L 66.042 415.89 L 160.173 415.89 L 160.173 504.5 C 160.173 508.643 163.531 512 167.673 512 C 171.815 512 175.173 508.643 175.173 504.5 L 175.173 385.439 C 175.173 376.565 170.785 368.7 164.07 363.886 C 170.905 357.327 175.173 348.113 175.173 337.914 L 175.173 225.034 C 175.176 213.019 165.4 203.243 153.384 203.243 L 153.384 203.243 Z  M 160.176 400.89 L 66.044 400.89 L 66.044 385.44 C 66.044 379.093 71.207 373.93 77.554 373.93 L 148.666 373.93 C 155.013 373.93 160.176 379.093 160.176 385.44 L 160.176 400.89 Z  M 160.176 337.915 C 160.176 349.503 150.749 358.93 139.161 358.93 L 88.534 358.93 C 82.306 358.93 76.437 356.193 72.434 351.421 L 16.3 284.508 C 14.351 282.185 14.639 278.691 16.941 276.717 C 19.111 274.858 22.312 274.94 24.384 276.905 L 42.439 294.043 C 45.474 296.923 49.923 297.729 53.775 296.09 C 57.626 294.453 60.134 290.692 60.167 286.506 L 60.845 196.52 C 60.845 192.775 63.892 189.728 67.637 189.728 C 71.382 189.728 74.429 192.775 74.429 196.52 L 74.429 257.306 C 74.429 261.449 77.787 264.806 81.929 264.806 C 86.071 264.806 89.429 261.449 89.429 257.306 L 89.429 181.25 C 89.429 177.505 92.476 174.458 96.221 174.458 C 99.966 174.458 103.013 177.505 103.013 181.25 L 103.013 257.306 C 103.013 261.449 106.371 264.806 110.513 264.806 C 114.655 264.806 118.013 261.449 118.013 257.306 L 118.013 196.52 C 118.013 192.775 121.06 189.728 124.805 189.728 C 128.55 189.728 131.596 192.775 131.596 196.52 L 131.596 257.306 C 131.596 261.449 134.954 264.806 139.096 264.806 C 143.238 264.806 146.596 261.449 146.596 257.306 L 146.596 225.035 C 146.596 221.29 149.643 218.243 153.388 218.243 C 157.133 218.243 160.18 221.29 160.18 225.035 L 160.18 337.915 L 160.176 337.915 Z  M 308.316 214.132 C 310.703 211.851 367.572 143.787 369.857 141.064 C 377.305 132.187 376.206 118.831 367.409 111.29 C 359.117 104.182 346.889 104.492 338.968 112.011 L 327.231 123.151 L 326.594 38.601 C 326.594 26.175 316.485 16.065 304.058 16.065 C 301.206 16.065 298.478 16.603 295.965 17.574 C 293.696 7.528 284.706 0 273.985 0 C 263.264 0 254.274 7.528 252.007 17.574 C 249.493 16.603 246.766 16.065 243.914 16.065 C 231.488 16.065 221.378 26.174 221.378 38.601 L 221.378 47.366 C 219.02 46.527 216.485 46.066 213.842 46.066 C 201.416 46.066 191.306 56.175 191.306 68.602 L 191.306 187.36 C 191.306 198.148 195.892 207.881 203.208 214.729 C 196.024 219.695 191.306 227.985 191.306 237.36 L 191.306 504.5 C 191.306 508.643 194.664 512 198.806 512 C 202.948 512 206.306 508.643 206.306 504.5 L 206.306 269.006 L 306.121 269.006 L 306.121 504.5 C 306.121 508.643 309.479 512 313.621 512 C 317.763 512 321.121 508.643 321.121 504.5 L 321.121 237.36 C 321.122 227.598 316.004 219.014 308.316 214.132 L 308.316 214.132 Z  M 206.306 68.601 C 206.306 64.446 209.686 61.065 213.842 61.065 C 217.998 61.065 221.378 64.445 221.378 68.601 L 221.378 102.553 C 221.378 106.695 224.736 110.053 228.878 110.053 C 233.02 110.053 236.378 106.695 236.378 102.553 L 236.378 38.601 C 236.378 34.446 239.759 31.065 243.914 31.065 C 248.069 31.065 251.45 34.445 251.45 38.601 L 251.45 102.553 C 251.45 106.695 254.808 110.053 258.95 110.053 C 263.092 110.053 266.45 106.695 266.45 102.553 L 266.45 38.601 L 266.45 22.536 C 266.45 18.381 269.83 15 273.986 15 C 278.142 15 281.522 18.38 281.522 22.536 L 281.522 38.601 L 281.522 102.553 C 281.522 106.695 284.88 110.053 289.022 110.053 C 293.164 110.053 296.522 106.695 296.522 102.553 L 296.522 38.601 C 296.522 34.446 299.903 31.065 304.058 31.065 C 308.213 31.065 311.594 34.445 311.594 38.657 L 312.31 133.631 C 312.342 137.816 314.851 141.577 318.702 143.214 C 322.553 144.852 327.003 144.048 330.038 141.167 L 349.295 122.89 C 351.622 120.683 355.212 120.592 357.648 122.679 C 360.231 124.894 360.554 128.816 358.367 131.423 L 299.31 201.821 C 295.024 206.93 288.741 209.86 282.072 209.86 L 228.808 209.86 C 216.401 209.86 206.308 199.767 206.308 187.36 L 206.308 68.601 L 206.306 68.601 Z  M 306.122 254.006 L 206.307 254.006 L 206.307 237.36 C 206.307 230.467 211.914 224.86 218.807 224.86 L 293.622 224.86 C 300.515 224.86 306.122 230.467 306.122 237.36 L 306.122 254.006 Z  M 507.191 294.148 C 514.4 285.556 513.337 272.627 504.82 265.328 C 496.795 258.449 484.959 258.749 477.29 266.026 L 466.754 276.025 L 466.155 196.52 C 466.155 184.504 456.38 174.728 444.363 174.728 C 441.756 174.728 439.255 175.189 436.936 176.033 C 434.592 166.528 425.998 159.458 415.78 159.458 C 405.562 159.458 396.968 166.529 394.624 176.033 C 392.305 175.19 389.804 174.728 387.197 174.728 C 375.181 174.728 365.406 184.503 365.406 196.52 L 365.406 204.333 C 363.267 203.63 360.986 203.244 358.614 203.244 C 346.598 203.244 336.822 213.02 336.822 225.036 L 336.822 337.916 C 336.822 348.114 341.09 357.329 347.925 363.888 C 341.21 368.702 336.822 376.566 336.822 385.441 L 336.822 504.5 C 336.822 508.643 340.18 512 344.322 512 C 348.464 512 351.822 508.643 351.822 504.5 L 351.822 415.89 L 423.453 415.89 C 427.595 415.89 430.953 412.533 430.953 408.39 C 430.953 404.247 427.595 400.89 423.453 400.89 L 351.822 400.89 L 351.822 385.44 C 351.822 379.093 356.985 373.93 363.332 373.93 L 434.444 373.93 C 440.791 373.93 445.954 379.093 445.954 385.44 L 445.954 504.5 C 445.954 508.643 449.312 512 453.454 512 C 457.596 512 460.954 508.643 460.954 504.5 L 460.954 385.439 C 460.954 376.193 456.193 368.042 448.997 363.297 C 450.967 361.365 505.28 296.427 507.191 294.148 L 507.191 294.148 Z  M 439.566 351.421 C 435.563 356.192 429.694 358.93 423.466 358.93 L 372.839 358.93 C 361.252 358.93 351.824 349.503 351.824 337.915 L 351.824 225.035 C 351.824 221.29 354.871 218.243 358.616 218.243 C 362.361 218.243 365.408 221.29 365.408 225.035 L 365.408 257.306 C 365.408 261.449 368.766 264.806 372.908 264.806 C 377.05 264.806 380.408 261.449 380.408 257.306 L 380.408 196.52 C 380.408 192.775 383.455 189.728 387.2 189.728 C 390.945 189.728 393.991 192.775 393.991 196.52 L 393.991 257.306 C 393.991 261.449 397.349 264.806 401.491 264.806 C 405.633 264.806 408.991 261.449 408.991 257.306 L 408.991 196.52 L 408.991 181.25 C 408.991 177.505 412.038 174.458 415.783 174.458 C 419.528 174.458 422.575 177.505 422.575 181.25 L 422.575 257.306 C 422.575 261.449 425.933 264.806 430.075 264.806 C 434.217 264.806 437.575 261.449 437.575 257.306 L 437.575 196.52 C 437.575 192.775 440.622 189.728 444.367 189.728 C 448.112 189.728 451.159 192.775 451.159 196.576 L 451.837 286.506 C 451.869 290.691 454.378 294.452 458.229 296.089 C 462.08 297.725 466.529 296.922 469.566 294.041 L 487.62 276.905 C 489.693 274.938 492.893 274.856 495.063 276.716 C 497.365 278.69 497.653 282.184 495.704 284.507 L 439.566 351.421 Z " fill="rgb(82,127,210)"/></g></svg>