<?xml version="1.0" encoding="UTF-8" standalone="no"?><!-- Generator: Gravit.io --><svg xmlns="http://www.w3.org/2000/svg" xmlns:xlink="http://www.w3.org/1999/xlink" style="isolation:isolate" viewBox="0 0 511.999 511.999" width="511.999pt" height="511.999pt"><defs><clipPath id="_clipPath_NcSgtGEaXLVktF4SkiFCYwN87L6lvfXS"><rect width="511.999" height="511.999"/></clipPath></defs><g clip-path="url(#_clipPath_NcSgtGEaXLVktF4SkiFCYwN87L6lvfXS)"><g><g><g><path d=" M 455.73 311.33 C 470.152 311.33 484.377 305.716 495.05 295.041 C 516.716 273.374 516.716 238.121 495.05 216.454 C 485.972 207.377 474.033 201.79 461.402 200.486 C 461.093 192.752 460.318 185.295 459.055 178.227 C 454.719 153.979 445.027 134.19 430.248 119.41 C 411.071 100.234 383.244 89.593 349.176 88.228 C 347.87 75.609 342.273 63.679 333.204 54.608 C 311.537 32.943 276.284 32.943 254.618 54.608 C 239.849 69.377 234.768 90.939 240.841 110.424 C 239.212 111.135 237.586 111.854 235.969 112.597 L 235.969 18.487 C 235.969 13.328 233.791 8.369 229.993 4.879 C 226.196 1.388 221.066 -0.372 215.929 0.067 L 12.305 17.232 C 5.798 17.781 0.699 23.327 0.699 29.858 L 0.699 482.142 C 0.699 488.673 5.798 494.22 12.306 494.768 L 12.307 494.768 L 215.93 511.934 C 216.445 511.977 216.961 511.999 217.474 511.999 C 222.085 511.999 226.578 510.265 229.994 507.124 C 233.792 503.633 235.97 498.672 235.97 493.514 L 235.97 416.564 C 251.494 421.464 267.433 423.863 283.257 423.863 C 302.744 423.863 322.046 420.22 340.162 413.159 C 352.677 421.753 367.707 427.023 383.948 428.443 C 386.84 428.695 389.736 428.822 392.632 428.822 C 399.331 428.821 406.022 428.145 412.613 426.798 C 446.823 419.807 474.537 395.799 490.649 359.197 C 497.043 344.674 490.428 327.655 475.903 321.261 C 461.379 314.875 444.363 321.487 437.97 336.006 C 427.228 360.406 411.986 368.18 401.089 370.406 C 415.874 353.619 429.008 332.24 439.224 308.797 C 444.629 310.482 450.192 311.33 455.73 311.33 Z  M 219.731 493.515 C 219.731 494.331 219.336 494.865 219.005 495.169 C 218.674 495.472 218.111 495.823 217.294 495.754 L 16.938 478.863 L 16.938 33.138 L 217.294 16.247 C 218.105 16.179 218.673 16.528 219.005 16.832 C 219.336 17.137 219.731 17.671 219.731 18.486 L 219.731 493.515 L 219.731 493.515 Z  M 457.51 249.823 C 457.998 247.232 458.431 244.653 458.832 242.08 C 461.39 242.656 463.777 243.921 465.682 245.826 C 471.153 251.297 471.153 260.2 465.682 265.671 C 462.276 269.077 457.482 270.399 452.996 269.502 C 454.752 262.974 456.269 256.399 457.51 249.823 Z  M 455.732 286.023 C 463.545 286.023 471.307 283.008 477.162 277.154 C 488.966 265.35 488.966 246.145 477.162 234.341 C 472.657 229.836 466.911 226.945 460.789 225.911 C 461.048 222.86 461.243 219.833 461.371 216.837 C 469.706 218.046 477.532 221.905 483.566 227.938 C 498.901 243.272 498.901 268.224 483.566 283.559 C 473.424 293.703 458.758 297.365 445.3 293.65 C 446.347 290.812 447.35 287.954 448.307 285.079 C 450.749 285.698 453.242 286.023 455.732 286.023 Z  M 266.1 66.092 C 281.434 50.758 306.386 50.757 321.72 66.091 C 327.751 72.122 331.607 79.943 332.819 88.277 C 329.816 88.407 326.79 88.616 323.749 88.874 C 322.716 82.751 319.822 77.002 315.316 72.496 C 303.514 60.694 284.307 60.694 272.505 72.496 C 264.798 80.203 262.015 91.214 264.548 101.299 C 261.687 102.251 258.838 103.268 255.999 104.317 C 252.303 90.868 255.968 76.224 266.1 66.092 Z  M 307.575 90.811 C 298.476 92.223 289.301 94.174 280.149 96.63 C 279.266 92.154 280.591 87.376 283.988 83.98 C 289.461 78.507 298.363 78.507 303.834 83.98 C 305.734 85.878 306.997 88.259 307.575 90.811 Z  M 235.97 399.438 L 235.97 355.844 L 287.66 407.534 C 270.373 408.076 252.851 405.446 235.97 399.438 Z  M 308.42 405.327 L 235.97 332.877 L 235.97 270.011 L 354.286 388.326 C 340.029 396.694 324.491 402.402 308.42 405.327 Z  M 404.336 386.316 C 418.986 383.323 439.292 373.301 452.83 342.548 C 455.616 336.22 463.032 333.342 469.359 336.123 C 475.688 338.909 478.57 346.325 475.783 352.654 C 461.852 384.298 438.262 404.98 409.357 410.888 C 401.455 412.503 393.382 412.969 385.362 412.265 C 375.707 411.422 366.377 408.842 358.096 404.823 C 367.338 399.794 376.136 393.797 384.337 386.86 C 390.908 387.831 397.74 387.663 404.336 386.316 Z  M 382.507 366.51 C 377.934 371.083 373.088 375.274 368.034 379.108 L 235.97 247.045 L 235.97 196.137 L 242.052 202.218 C 243.637 203.803 245.716 204.595 247.793 204.595 C 249.87 204.595 251.949 203.803 253.534 202.217 C 256.705 199.046 256.705 193.906 253.534 190.735 L 235.97 173.171 L 235.97 130.592 C 267.179 115.182 302.733 105.692 334.306 104.456 C 359.783 103.458 395.106 107.235 418.764 130.894 C 442.635 154.765 450.941 197.016 441.551 246.814 C 432.858 292.921 410.234 338.785 382.507 366.51 Z " fill="rgb(82,127,210)"/><path d=" M 188.843 238.475 C 173.628 238.475 161.25 250.853 161.25 266.068 C 161.25 281.284 173.628 293.661 188.843 293.661 C 204.059 293.661 216.437 281.283 216.437 266.068 C 216.437 250.853 204.059 238.475 188.843 238.475 Z  M 188.843 277.423 C 182.582 277.423 177.489 272.329 177.489 266.069 C 177.489 259.809 182.583 254.715 188.843 254.715 C 195.105 254.715 200.198 259.809 200.198 266.069 C 200.198 272.329 195.105 277.423 188.843 277.423 Z " fill="rgb(82,127,210)"/><path d=" M 259.066 156.122 L 256.181 159.007 C 253.01 162.178 253.009 167.319 256.18 170.49 C 257.765 172.076 259.844 172.868 261.922 172.868 C 264 172.868 266.077 172.076 267.663 170.491 L 270.549 167.606 C 273.72 164.435 273.721 159.294 270.55 156.124 C 267.378 152.952 262.237 152.953 259.066 156.122 Z " fill="rgb(82,127,210)"/><path d=" M 345.309 245.653 C 342.138 242.483 336.997 242.483 333.826 245.653 C 332.602 246.879 330.973 247.553 329.241 247.553 C 327.509 247.553 325.881 246.879 324.656 245.653 C 323.432 244.429 322.757 242.8 322.757 241.069 C 322.757 239.337 323.431 237.709 324.656 236.485 C 326.241 234.899 327.034 232.821 327.034 230.743 C 327.034 228.665 326.242 226.587 324.657 225.002 C 321.485 221.83 316.345 221.831 313.174 225.001 C 310.646 227.53 306.531 227.529 304.004 225.002 C 302.779 223.776 302.104 222.147 302.104 220.416 C 302.104 218.684 302.778 217.056 304.003 215.832 C 307.174 212.661 307.174 207.52 304.003 204.349 C 300.832 201.177 295.691 201.178 292.52 204.348 C 288.229 208.641 285.864 214.346 285.864 220.416 C 285.864 226.485 288.227 232.193 292.52 236.485 C 296.445 240.409 301.46 242.596 306.6 243.043 C 307.055 248.367 309.349 253.314 313.171 257.136 C 317.464 261.428 323.17 263.792 329.239 263.792 C 335.308 263.792 341.014 261.428 345.306 257.136 C 348.481 253.965 348.481 248.825 345.309 245.653 Z " fill="rgb(82,127,210)"/><path d=" M 358.923 296.124 C 355.752 292.954 350.611 292.954 347.44 296.124 C 344.269 299.296 344.269 304.436 347.44 307.607 L 365.04 325.207 C 366.625 326.792 368.704 327.584 370.781 327.584 C 372.859 327.584 374.937 326.79 376.522 325.207 C 379.693 322.035 379.693 316.895 376.522 313.724 L 358.923 296.124 L 358.923 296.124 Z " fill="rgb(82,127,210)"/><path d=" M 382.054 279.111 L 379.169 281.997 C 375.998 285.168 375.999 290.309 379.17 293.479 C 380.755 295.065 382.832 295.856 384.911 295.856 C 386.989 295.856 389.067 295.064 390.653 293.478 L 393.538 290.592 C 396.709 287.421 396.708 282.28 393.537 279.11 C 390.366 275.938 385.225 275.939 382.054 279.111 Z " fill="rgb(82,127,210)"/></g></g></g></g></svg>