<?xml version="1.0" encoding="UTF-8" standalone="no"?><!-- Generator: Gravit.io --><svg xmlns="http://www.w3.org/2000/svg" xmlns:xlink="http://www.w3.org/1999/xlink" style="isolation:isolate" viewBox="0 0 512.001 512.001" width="512.001pt" height="512.001pt"><defs><clipPath id="_clipPath_pIeP724EIdzu03Mma5ljDdxF6nldJdeA"><rect width="512.001" height="512.001"/></clipPath></defs><g clip-path="url(#_clipPath_pIeP724EIdzu03Mma5ljDdxF6nldJdeA)"><g><g><path d=" M 501.997 491.998 L 278.098 491.998 L 290.005 457.997 L 368.87 457.997 C 374.392 457.997 378.87 453.52 378.87 447.997 C 378.87 416.741 353.823 391.224 322.739 390.453 C 321.046 387.186 319.087 384.094 316.902 381.191 L 330.449 342.508 C 342.655 351.898 360.405 350.968 371.503 339.833 L 383.501 327.797 C 387.818 323.466 394.87 323.44 399.219 327.74 L 411.663 340.046 C 417.681 345.996 425.61 349.025 433.572 349.025 C 440.339 349.025 447.13 346.837 452.786 342.395 L 455.824 340.009 L 492.562 444.917 C 494.004 449.036 497.869 451.615 502 451.615 C 503.097 451.615 504.212 451.433 505.306 451.05 C 510.518 449.225 513.264 443.519 511.438 438.307 L 426.278 195.13 C 421.343 181.038 408.507 171.933 393.576 171.932 C 393.575 171.932 393.576 171.932 393.575 171.932 C 378.644 171.932 365.806 181.038 360.871 195.13 L 344.674 241.379 L 279.531 92.774 C 275.373 83.29 266.356 77.398 256 77.398 C 245.644 77.398 236.628 83.291 232.471 92.775 L 219.846 121.575 C 217.628 126.633 219.931 132.531 224.99 134.748 C 230.05 136.967 235.946 134.663 238.163 129.604 L 250.789 100.804 C 252.137 97.73 254.883 97.398 256.001 97.397 C 257.12 97.397 259.867 97.729 261.215 100.804 L 317.828 229.954 L 306.426 241.355 C 303.987 243.795 300.761 245.107 297.29 245.083 C 293.839 245.047 290.623 243.655 288.235 241.164 L 282.297 234.97 C 275.507 227.888 265.981 224.25 256.225 224.982 C 246.444 225.715 237.589 230.732 231.933 238.744 L 224.388 249.432 C 222.217 252.506 218.823 254.453 215.073 254.774 C 211.322 255.091 207.647 253.753 204.987 251.091 L 191.028 237.132 L 201.599 213.017 C 203.817 207.959 201.514 202.061 196.455 199.844 C 191.397 197.627 185.5 199.93 183.282 204.988 L 154.534 270.567 L 127.787 201.317 C 123.719 190.783 113.793 183.976 102.5 183.976 C 91.208 183.976 81.282 190.783 77.214 201.317 L 41.15 294.693 C 41.044 294.94 40.945 295.189 40.861 295.441 L 0.674 399.489 C -1.316 404.641 1.247 410.43 6.4 412.421 C 7.585 412.878 8.802 413.095 10.001 413.095 C 14.014 413.095 17.799 410.663 19.331 406.696 L 54.385 315.937 L 64.559 325.299 C 69.794 330.116 76.595 332.572 83.694 332.21 C 90.798 331.85 97.311 328.72 102.032 323.398 L 106.086 318.827 C 107.719 316.986 109.734 316.711 110.793 316.711 L 110.797 316.711 C 111.855 316.711 113.873 316.988 115.506 318.834 L 127.456 332.345 L 57.468 491.998 L 10.003 491.998 C 4.481 491.998 0.003 496.475 0.003 501.998 C 0.003 507.521 4.481 511.998 10.003 511.998 L 501.996 511.998 C 507.518 511.998 511.996 507.521 511.996 501.998 C 511.996 496.475 507.518 491.998 501.997 491.998 Z  M 379.745 201.74 C 382.278 194.509 388.549 191.932 393.573 191.932 C 398.597 191.932 404.868 194.509 407.4 201.74 L 448.837 320.065 L 440.432 326.665 C 436.027 330.124 429.704 329.762 425.723 325.825 L 413.279 313.519 C 401.12 301.496 381.405 301.566 369.335 313.677 L 357.338 325.713 C 353.075 329.989 346.071 330.06 341.723 325.871 L 337.649 321.944 L 379.745 201.74 L 379.745 201.74 Z  M 110.808 296.711 C 110.801 296.711 110.797 296.711 110.797 296.711 C 103.276 296.711 96.107 299.935 91.121 305.557 L 87.067 310.128 C 85.937 311.401 84.379 312.15 82.679 312.237 C 80.952 312.316 79.352 311.735 78.1 310.583 L 62.13 295.885 L 95.873 208.522 C 97.458 204.418 101.038 203.975 102.503 203.975 C 103.969 203.975 107.549 204.418 109.134 208.522 L 143.139 296.566 L 136.303 312.161 L 130.486 305.584 C 125.502 299.949 118.33 296.715 110.808 296.711 Z  M 256.907 491.999 L 79.303 491.999 L 79.303 491.998 L 182.407 256.794 L 190.844 265.231 C 197.019 271.406 205.321 274.819 213.968 274.819 C 214.901 274.819 215.839 274.779 216.778 274.699 C 226.418 273.874 235.147 268.868 240.726 260.965 L 248.271 250.278 C 250.472 247.161 253.916 245.21 257.719 244.925 C 261.526 244.632 265.219 246.055 267.86 248.809 L 273.798 255.003 C 279.939 261.408 288.207 264.987 297.08 265.08 C 297.198 265.081 297.316 265.082 297.435 265.082 C 306.174 265.082 314.377 261.686 320.567 255.496 L 326.447 249.617 L 334.975 269.073 L 301.001 366.084 C 290.213 358.772 277.296 354.579 263.783 354.579 C 238.932 354.579 216.084 368.734 204.832 390.454 C 173.747 391.225 148.699 416.743 148.699 447.998 C 148.699 453.521 153.177 457.998 158.699 457.998 L 179.129 457.998 C 184.651 457.998 189.129 453.521 189.129 447.998 C 189.129 442.475 184.651 437.998 179.129 437.998 L 170.051 437.998 C 174.443 422.124 189.023 410.435 206.283 410.435 C 207.544 410.435 208.855 410.503 210.179 410.637 C 214.672 411.087 218.908 408.479 220.522 404.263 C 227.321 386.508 244.707 374.578 263.784 374.578 C 282.863 374.578 300.25 386.508 307.05 404.264 C 308.665 408.479 312.886 411.09 317.394 410.637 C 318.717 410.504 320.027 410.436 321.288 410.436 C 338.549 410.436 353.129 422.125 357.52 437.999 L 250.003 437.999 C 244.481 437.999 240.003 442.476 240.003 447.999 C 240.003 453.522 244.481 457.999 250.003 457.999 L 268.814 457.999 L 256.907 491.999 L 256.907 491.999 Z " fill="rgb(82,127,210)"/></g></g><g><g><path d=" M 140.091 28.16 C 130.697 11.071 112.381 0.003 92.501 0.003 C 72.621 0.003 54.306 11.07 44.912 28.16 C 19.931 29.435 0.003 50.12 0.003 75.364 C 0.003 80.887 4.48 85.364 10.003 85.364 L 174.999 85.364 C 180.521 85.364 184.999 80.887 184.999 75.364 C 184.999 50.12 165.07 29.435 140.091 28.16 Z  M 21.908 65.365 C 25.918 55.262 35.814 48.097 47.358 48.097 C 48.269 48.097 49.229 48.147 50.21 48.245 C 54.689 48.698 58.928 46.087 60.543 41.877 C 65.562 28.794 78.404 20.003 92.5 20.003 C 106.598 20.003 119.44 28.793 124.459 41.877 C 126.074 46.087 130.299 48.697 134.793 48.246 C 135.772 48.148 136.731 48.098 137.643 48.098 C 149.188 48.098 159.085 55.263 163.095 65.365 L 21.908 65.365 L 21.908 65.365 Z " fill="rgb(82,127,210)"/></g></g><g><g><path d=" M 450.997 54.004 C 433.121 54.004 416.548 61.656 405.059 74.864 C 399.434 72.321 393.325 71.004 386.998 71.004 C 362.736 71.004 342.999 90.742 342.999 115.003 C 342.999 120.526 347.476 125.003 352.999 125.003 L 501.997 125.003 C 507.519 125.003 511.997 120.526 511.997 115.003 C 511.996 81.368 484.633 54.004 450.997 54.004 Z  M 365.181 105.003 C 368.98 96.748 377.331 91.003 386.998 91.003 C 392.333 91.003 397.386 92.721 401.61 95.972 C 403.846 97.693 406.708 98.388 409.484 97.888 C 412.261 97.387 414.698 95.735 416.192 93.341 C 423.749 81.232 436.76 74.003 450.998 74.003 C 470.157 74.003 486.289 87.213 490.764 105.003 L 365.181 105.003 L 365.181 105.003 Z " fill="rgb(82,127,210)"/></g></g><g><g><path d=" M 218.741 157.261 C 216.881 155.401 214.301 154.331 211.671 154.331 C 209.03 154.331 206.461 155.401 204.591 157.261 C 202.731 159.131 201.671 161.701 201.671 164.331 C 201.671 166.961 202.731 169.541 204.591 171.411 C 206.461 173.272 209.041 174.331 211.671 174.331 C 214.301 174.331 216.871 173.271 218.741 171.411 C 220.6 169.551 221.671 166.971 221.671 164.331 C 221.671 161.701 220.601 159.121 218.741 157.261 Z " fill="rgb(82,127,210)"/></g></g><g><g><path d=" M 220.069 440.928 C 218.21 439.068 215.63 437.998 213 437.998 C 210.37 437.998 207.791 439.068 205.93 440.928 C 204.07 442.788 203 445.368 203 447.998 C 203 450.628 204.069 453.208 205.93 455.068 C 207.791 456.928 210.37 457.998 213 457.998 C 215.63 457.998 218.21 456.928 220.069 455.068 C 221.929 453.208 223 450.628 223 447.998 C 223 445.368 221.93 442.788 220.069 440.928 Z " fill="rgb(82,127,210)"/></g></g></g></svg>