<?xml version="1.0" encoding="UTF-8" standalone="no"?><!-- Generator: Gravit.io --><svg xmlns="http://www.w3.org/2000/svg" xmlns:xlink="http://www.w3.org/1999/xlink" style="isolation:isolate" viewBox="0 0 512 512" width="512pt" height="512pt"><defs><clipPath id="_clipPath_ifh1NofzVlB5vf8StvKTAiosGBmz6wLI"><rect width="512" height="512"/></clipPath></defs><g clip-path="url(#_clipPath_ifh1NofzVlB5vf8StvKTAiosGBmz6wLI)"><path d=" M 218.574 128.867 C 218.574 118.277 211.895 109.984 203.371 109.984 C 194.848 109.984 188.168 118.277 188.168 128.867 C 188.168 139.453 194.848 147.75 203.371 147.75 C 211.895 147.75 218.574 139.453 218.574 128.867 Z " fill="rgb(117,195,255)"/><path d=" M 308.031 147.75 C 316.559 147.75 323.234 139.453 323.234 128.867 C 323.234 118.277 316.559 109.984 308.031 109.984 C 299.508 109.984 292.832 118.277 292.832 128.867 C 292.832 139.453 299.508 147.75 308.031 147.75 Z " fill="rgb(117,195,255)"/><path d=" M 446.535 248.535 C 431.008 222.953 411.645 201.078 401.242 189.328 L 398.914 186.691 C 393.355 180.387 389.363 164.855 385.426 148.137 C 384.477 144.109 380.441 141.617 376.418 142.563 C 372.391 143.512 369.895 147.547 370.844 151.57 C 373.27 161.875 375.57 171.113 378.301 178.879 C 372.785 177.559 367.922 175.633 363.797 173.074 C 356.293 168.414 353.023 151.566 349.859 135.273 C 347.094 121.027 344.234 106.293 338.098 94.508 C 330.414 79.742 318.668 72.254 303.187 72.254 C 288.977 72.254 278.805 79.234 273.777 92.445 C 269.855 102.75 269.332 115.547 268.82 127.926 C 268.797 128.527 268.77 129.105 268.746 129.691 L 242.66 129.691 C 242.633 129.105 242.605 128.527 242.582 127.926 C 242.074 115.547 241.547 102.75 237.625 92.445 C 232.598 79.238 222.426 72.254 208.215 72.254 C 192.734 72.254 180.992 79.742 173.305 94.508 C 167.168 106.293 164.309 121.027 161.543 135.273 C 158.379 151.566 155.109 168.414 147.605 173.074 C 143.48 175.633 138.613 177.563 133.094 178.879 C 136.406 169.457 139.121 157.801 142.191 144.586 C 148.461 117.621 156.266 84.063 172.961 58.301 C 191.855 29.148 218.922 14.98 255.703 14.98 C 325.969 14.98 349.336 67.453 362.926 118.781 C 363.984 122.777 368.078 125.172 372.082 124.102 C 376.082 123.047 378.465 118.945 377.406 114.945 C 363.238 61.43 336.602 0 255.703 0 C 160.43 0 140.672 84.969 127.602 141.191 C 122.996 161 118.645 179.707 112.492 186.691 L 110.164 189.324 C 99.316 201.578 81.164 222.086 65.812 246.992 C 63.645 250.516 64.738 255.129 68.262 257.301 C 71.738 259.441 76.426 258.324 78.566 254.852 C 93.234 231.047 110.855 211.145 121.383 199.254 C 122.496 197.992 123.629 196.746 124.68 195.426 C 136.75 194.242 147.109 191.016 155.508 185.801 C 168.57 177.687 172.301 158.473 176.25 138.129 C 182.219 107.387 187.668 87.234 208.215 87.234 C 224.172 87.234 226.461 100.461 227.613 128.539 C 228.086 140.074 228.535 150.969 231.566 159.852 C 236.668 174.801 247.508 177.937 255.703 177.937 C 263.898 177.937 274.738 174.801 279.84 159.852 C 282.871 150.969 283.32 140.074 283.793 128.539 C 284.945 100.461 287.234 87.234 303.191 87.234 C 323.738 87.234 329.187 107.387 335.156 138.129 C 339.105 158.473 342.836 177.687 355.898 185.801 C 364.297 191.016 374.652 194.238 386.719 195.426 C 387.77 196.746 388.91 197.992 390.027 199.258 C 409.895 221.703 462.672 281.324 455.91 332.699 C 453.684 349.582 444.988 364.461 430.039 377.07 C 421.598 306.441 391.16 263.691 389.789 261.801 C 387.363 258.453 382.687 257.707 379.34 260.125 C 375.988 262.547 375.234 267.227 377.648 270.578 C 377.98 271.039 410.863 317.449 416.398 391.57 C 416.402 391.629 416.418 391.687 416.422 391.746 C 416.426 391.781 416.422 391.816 416.43 391.852 C 416.441 391.996 417.781 406.695 405.426 428.91 C 403.418 432.527 404.719 437.09 408.332 439.098 C 411.902 441.082 416.535 439.758 418.52 436.191 C 429.168 417.043 431.18 402.168 431.422 394.922 C 454.398 378.699 467.629 358.441 470.762 334.652 C 474.078 309.461 465.926 280.488 446.535 248.535 L 446.535 248.535 Z  M 255.703 162.957 C 249.047 162.957 245.578 159.789 243.777 144.668 L 267.629 144.668 C 265.828 159.793 262.359 162.957 255.703 162.957 Z " fill="rgb(117,195,255)"/><path d=" M 399.508 451.48 C 396.359 448.797 391.633 449.176 388.949 452.324 C 384.988 456.973 380.594 461.629 375.836 466.227 C 361.18 454.164 344.969 449.898 328.355 453.867 C 303.742 459.746 292.898 473.406 288.137 483.832 C 287.684 484.824 287.324 485.84 287.043 486.867 L 224.359 486.867 C 224.078 485.84 223.719 484.824 223.266 483.832 C 218.504 473.406 207.66 459.746 183.043 453.867 C 166.434 449.895 150.227 454.16 135.57 466.223 C 122.375 453.445 106.918 435.227 99.262 414.402 C 94.164 400.531 94.969 391.938 94.969 391.926 C 94.973 391.891 94.969 391.852 94.973 391.816 C 94.984 391.734 95 391.652 95.004 391.57 C 100.543 317.449 133.422 271.039 133.754 270.578 C 136.176 267.23 135.426 262.551 132.078 260.129 C 128.73 257.699 124.043 258.449 121.617 261.801 C 120.246 263.691 89.801 306.453 81.363 377.105 C 52.488 352.91 47.238 320.988 65.273 279.902 C 66.938 276.113 65.215 271.695 61.426 270.031 C 57.637 268.371 53.223 270.094 51.559 273.883 C 29.395 324.363 39.23 366.125 79.973 394.914 C 80.352 406.68 85.434 438.508 124.91 476.754 C 119.832 483.121 118.75 491.574 122.137 499.105 C 125.711 507.059 133.344 512 142.047 512 L 205.094 512 C 211.926 512 218.207 508.566 221.902 502.816 C 222.105 502.5 222.297 502.176 222.48 501.848 L 288.922 501.848 C 289.105 502.176 289.297 502.5 289.504 502.816 C 293.195 508.566 299.48 512 306.309 512 L 369.355 512 C 378.059 512 385.691 507.059 389.27 499.105 C 392.652 491.574 391.57 483.121 386.496 476.754 C 391.504 471.898 396.148 466.973 400.348 462.043 C 403.035 458.891 402.656 454.164 399.508 451.48 L 399.508 451.48 Z  M 209.297 494.719 C 208.852 495.41 207.555 497.02 205.094 497.02 L 142.047 497.02 C 136.355 497.02 133.02 490.121 136.871 485.777 C 147.703 473.566 159.18 467.418 171.098 467.418 C 173.895 467.418 176.719 467.758 179.563 468.437 C 194.609 472.031 204.73 479.309 209.641 490.059 C 210.637 492.234 209.73 494.043 209.297 494.719 L 209.297 494.719 Z  M 375.605 492.961 C 375.18 493.91 373.461 497.02 369.355 497.02 L 306.309 497.02 C 302.797 497.02 300.277 493.305 301.762 490.059 C 306.676 479.305 316.793 472.031 331.84 468.438 C 334.684 467.758 337.508 467.418 340.305 467.418 C 352.223 467.418 363.703 473.566 374.535 485.777 C 377.109 488.684 376.141 491.77 375.605 492.961 L 375.605 492.961 Z " fill="rgb(117,195,255)"/></g></svg>