<?xml version="1.0" encoding="UTF-8" standalone="no"?><!-- Generator: Gravit.io --><svg xmlns="http://www.w3.org/2000/svg" xmlns:xlink="http://www.w3.org/1999/xlink" style="isolation:isolate" viewBox="0 0 480 480" width="480pt" height="480pt"><defs><clipPath id="_clipPath_2QG6HNWh5g7sitjpgDciCLmxG2VyNEMi"><rect width="480" height="480"/></clipPath></defs><g clip-path="url(#_clipPath_2QG6HNWh5g7sitjpgDciCLmxG2VyNEMi)"><g><g><path d=" M 456 144 C 469.255 144 480 133.255 480 120 L 480 24 C 480 10.745 469.255 0 456 0 L 24 0 C 10.745 0 0 10.745 0 24 L 0 120 C 0 133.255 10.745 144 24 144 L 48 144 L 48 168 L 24 168 C 10.745 168 0 178.745 0 192 L 0 288 C 0 301.255 10.745 312 24 312 L 48 312 L 48 336 L 24 336 C 10.745 336 0 346.745 0 360 L 0 456 C 0 469.255 10.745 480 24 480 L 456 480 C 469.255 480 480 469.255 480 456 L 480 360 C 480 346.745 469.255 336 456 336 L 432 336 L 432 312 L 456 312 C 469.255 312 480 301.255 480 288 L 480 192 C 480 178.745 469.255 168 456 168 L 432 168 L 432 144 L 456 144 L 456 144 Z  M 456 352 C 460.418 352 464 355.582 464 360 L 464 456 C 464 460.418 460.418 464 456 464 L 24 464 C 19.582 464 16 460.418 16 456 L 16 360 C 16 355.582 19.582 352 24 352 L 456 352 L 456 352 Z  M 64 336 L 64 312 L 80 312 L 80 336 L 64 336 L 64 336 Z  M 96 336 L 96 312 L 384 312 L 384 336 L 96 336 L 96 336 Z  M 400 336 L 400 312 L 416 312 L 416 336 L 400 336 L 400 336 Z  M 456 184 C 460.418 184 464 187.582 464 192 L 464 288 C 464 292.418 460.418 296 456 296 L 24 296 C 19.582 296 16 292.418 16 288 L 16 192 C 16 187.582 19.582 184 24 184 L 456 184 L 456 184 Z  M 64 168 L 64 144 L 80 144 L 80 168 L 64 168 L 64 168 Z  M 96 168 L 96 144 L 384 144 L 384 168 L 96 168 L 96 168 Z  M 400 168 L 400 144 L 416 144 L 416 168 L 400 168 L 400 168 Z  M 24 128 C 19.582 128 16 124.418 16 120 L 16 24 C 16 19.582 19.582 16 24 16 L 456 16 C 460.418 16 464 19.582 464 24 L 464 120 C 464 124.418 460.418 128 456 128 L 24 128 L 24 128 Z " fill="rgb(117,195,255)"/></g></g><g><g><path d=" M 256 64 L 94.528 64 C 90.11 51.503 76.397 44.954 63.901 49.373 C 51.405 53.792 44.855 67.503 49.273 80 C 53.691 92.497 67.404 99.046 79.9 94.627 C 86.735 92.211 92.112 86.835 94.528 80 L 256 80 C 260.418 80 264 76.418 264 72 C 264 67.582 260.418 64 256 64 Z  M 72 80 C 67.582 80 64 76.418 64 72 C 64 67.582 67.582 64 72 64 C 76.418 64 80 67.582 80 72 C 80 76.418 76.418 80 72 80 Z " fill="rgb(117,195,255)"/></g></g><g><g><rect x="352" y="32" width="16" height="16" transform="matrix(1,0,0,1,0,0)" fill="rgb(117,195,255)"/></g></g><g><g><rect x="384" y="32" width="16" height="16" transform="matrix(1,0,0,1,0,0)" fill="rgb(117,195,255)"/></g></g><g><g><rect x="416" y="32" width="16" height="16" transform="matrix(1,0,0,1,0,0)" fill="rgb(117,195,255)"/></g></g><g><g><rect x="320" y="32" width="16" height="16" transform="matrix(1,0,0,1,0,0)" fill="rgb(117,195,255)"/></g></g><g><g><rect x="288" y="32" width="16" height="16" transform="matrix(1,0,0,1,0,0)" fill="rgb(117,195,255)"/></g></g><g><g><rect x="352" y="64" width="16" height="16" transform="matrix(1,0,0,1,0,0)" fill="rgb(117,195,255)"/></g></g><g><g><rect x="384" y="64" width="16" height="16" transform="matrix(1,0,0,1,0,0)" fill="rgb(117,195,255)"/></g></g><g><g><rect x="416" y="64" width="16" height="16" transform="matrix(1,0,0,1,0,0)" fill="rgb(117,195,255)"/></g></g><g><g><rect x="320" y="64" width="16" height="16" transform="matrix(1,0,0,1,0,0)" fill="rgb(117,195,255)"/></g></g><g><g><rect x="288" y="64" width="16" height="16" transform="matrix(1,0,0,1,0,0)" fill="rgb(117,195,255)"/></g></g><g><g><rect x="352" y="96" width="16" height="16" transform="matrix(1,0,0,1,0,0)" fill="rgb(117,195,255)"/></g></g><g><g><rect x="384" y="96" width="16" height="16" transform="matrix(1,0,0,1,0,0)" fill="rgb(117,195,255)"/></g></g><g><g><rect x="416" y="96" width="16" height="16" transform="matrix(1,0,0,1,0,0)" fill="rgb(117,195,255)"/></g></g><g><g><rect x="320" y="96" width="16" height="16" transform="matrix(1,0,0,1,0,0)" fill="rgb(117,195,255)"/></g></g><g><g><rect x="288" y="96" width="16" height="16" transform="matrix(1,0,0,1,0,0)" fill="rgb(117,195,255)"/></g></g><g><g><path d=" M 256 232 L 94.528 232 C 90.11 219.503 76.397 212.954 63.901 217.373 C 51.405 221.792 44.855 235.503 49.273 248 C 53.691 260.497 67.404 267.046 79.9 262.627 C 86.735 260.211 92.111 254.834 94.527 248 L 256 248 C 260.418 248 264 244.418 264 240 C 264 235.582 260.418 232 256 232 Z  M 72 248 C 67.582 248 64 244.418 64 240 C 64 235.582 67.582 232 72 232 C 76.418 232 80 235.582 80 240 C 80 244.418 76.418 248 72 248 Z " fill="rgb(117,195,255)"/></g></g><g><g><rect x="352" y="200" width="16" height="16" transform="matrix(1,0,0,1,0,0)" fill="rgb(117,195,255)"/></g></g><g><g><rect x="384" y="200" width="16" height="16" transform="matrix(1,0,0,1,0,0)" fill="rgb(117,195,255)"/></g></g><g><g><rect x="416" y="200" width="16" height="16" transform="matrix(1,0,0,1,0,0)" fill="rgb(117,195,255)"/></g></g><g><g><rect x="320" y="200" width="16" height="16" transform="matrix(1,0,0,1,0,0)" fill="rgb(117,195,255)"/></g></g><g><g><rect x="288" y="200" width="16" height="16" transform="matrix(1,0,0,1,0,0)" fill="rgb(117,195,255)"/></g></g><g><g><rect x="352" y="232" width="16" height="16" transform="matrix(1,0,0,1,0,0)" fill="rgb(117,195,255)"/></g></g><g><g><rect x="384" y="232" width="16" height="16" transform="matrix(1,0,0,1,0,0)" fill="rgb(117,195,255)"/></g></g><g><g><rect x="416" y="232" width="16" height="16" transform="matrix(1,0,0,1,0,0)" fill="rgb(117,195,255)"/></g></g><g><g><rect x="320" y="232" width="16" height="16" transform="matrix(1,0,0,1,0,0)" fill="rgb(117,195,255)"/></g></g><g><g><rect x="288" y="232" width="16" height="16" transform="matrix(1,0,0,1,0,0)" fill="rgb(117,195,255)"/></g></g><g><g><rect x="352" y="264" width="16" height="16" transform="matrix(1,0,0,1,0,0)" fill="rgb(117,195,255)"/></g></g><g><g><rect x="384" y="264" width="16" height="16" transform="matrix(1,0,0,1,0,0)" fill="rgb(117,195,255)"/></g></g><g><g><rect x="416" y="264" width="16" height="16" transform="matrix(1,0,0,1,0,0)" fill="rgb(117,195,255)"/></g></g><g><g><rect x="320" y="264" width="16" height="16" transform="matrix(1,0,0,1,0,0)" fill="rgb(117,195,255)"/></g></g><g><g><rect x="288" y="264" width="16" height="16" transform="matrix(1,0,0,1,0,0)" fill="rgb(117,195,255)"/></g></g><g><g><path d=" M 256 400 L 94.528 400 C 90.11 387.503 76.397 380.954 63.901 385.373 C 51.405 389.792 44.855 403.503 49.273 416 C 53.691 428.497 67.404 435.046 79.9 430.627 C 86.735 428.211 92.111 422.834 94.527 416 L 256 416 C 260.418 416 264 412.418 264 408 C 264 403.582 260.418 400 256 400 Z  M 72 416 C 67.582 416 64 412.418 64 408 C 64 403.582 67.582 400 72 400 C 76.418 400 80 403.582 80 408 C 80 412.418 76.418 416 72 416 Z " fill="rgb(117,195,255)"/></g></g><g><g><rect x="352" y="368" width="16" height="16" transform="matrix(1,0,0,1,0,0)" fill="rgb(117,195,255)"/></g></g><g><g><rect x="384" y="368" width="16" height="16" transform="matrix(1,0,0,1,0,0)" fill="rgb(117,195,255)"/></g></g><g><g><rect x="416" y="368" width="16" height="16" transform="matrix(1,0,0,1,0,0)" fill="rgb(117,195,255)"/></g></g><g><g><rect x="320" y="368" width="16" height="16" transform="matrix(1,0,0,1,0,0)" fill="rgb(117,195,255)"/></g></g><g><g><rect x="288" y="368" width="16" height="16" transform="matrix(1,0,0,1,0,0)" fill="rgb(117,195,255)"/></g></g><g><g><rect x="352" y="400" width="16" height="16" transform="matrix(1,0,0,1,0,0)" fill="rgb(117,195,255)"/></g></g><g><g><rect x="384" y="400" width="16" height="16" transform="matrix(1,0,0,1,0,0)" fill="rgb(117,195,255)"/></g></g><g><g><rect x="416" y="400" width="16" height="16" transform="matrix(1,0,0,1,0,0)" fill="rgb(117,195,255)"/></g></g><g><g><rect x="320" y="400" width="16" height="16" transform="matrix(1,0,0,1,0,0)" fill="rgb(117,195,255)"/></g></g><g><g><rect x="288" y="400" width="16" height="16" transform="matrix(1,0,0,1,0,0)" fill="rgb(117,195,255)"/></g></g><g><g><rect x="352" y="432" width="16" height="16" transform="matrix(1,0,0,1,0,0)" fill="rgb(117,195,255)"/></g></g><g><g><rect x="384" y="432" width="16" height="16" transform="matrix(1,0,0,1,0,0)" fill="rgb(117,195,255)"/></g></g><g><g><rect x="416" y="432" width="16" height="16" transform="matrix(1,0,0,1,0,0)" fill="rgb(117,195,255)"/></g></g><g><g><rect x="320" y="432" width="16" height="16" transform="matrix(1,0,0,1,0,0)" fill="rgb(117,195,255)"/></g></g><g><g><rect x="288" y="432" width="16" height="16" transform="matrix(1,0,0,1,0,0)" fill="rgb(117,195,255)"/></g></g></g></svg>