<?xml version="1.0" encoding="UTF-8" standalone="no"?><!-- Generator: Gravit.io --><svg xmlns="http://www.w3.org/2000/svg" xmlns:xlink="http://www.w3.org/1999/xlink" style="isolation:isolate" viewBox="0 0 512 512" width="512pt" height="512pt"><defs><clipPath id="_clipPath_UPizVGqPyRAqPb31OCge8UZR05mVlzaI"><rect width="512" height="512"/></clipPath></defs><g clip-path="url(#_clipPath_UPizVGqPyRAqPb31OCge8UZR05mVlzaI)"><g><g><g><path d=" M 416 176 L 416 112 C 416.025 107.747 414.355 103.659 411.36 100.64 L 315.36 4.64 C 312.341 1.645 308.253 -0.024 304 0 L 48 0 C 21.49 0 0 21.491 0 48 L 0 464 C 0 490.51 21.49 512 48 512 L 160 512 L 160 480 L 48 480 C 39.163 480 32 472.837 32 464 L 32 48 C 32 39.163 39.163 32 48 32 L 288 32 L 288 96 C 288 113.673 302.327 128 320 128 L 384 128 L 384 176 L 416 176 L 416 176 Z " fill="rgb(82,127,210)"/><path d=" M 144 288 L 176 288 C 184.837 288 192 295.163 192 304 L 224 304 C 224 277.49 202.51 256 176 256 L 144 256 C 117.49 256 96 277.49 96 304 C 96 330.51 117.49 352 144 352 L 176 352 C 184.837 352 192 359.163 192 368 C 192 376.837 184.837 384 176 384 L 144 384 C 135.163 384 128 376.837 128 368 L 96 368 C 96 394.51 117.49 416 144 416 L 176 416 C 202.51 416 224 394.51 224 368 C 224 341.49 202.51 320 176 320 L 144 320 C 135.163 320 128 312.837 128 304 C 128 295.163 135.164 288 144 288 Z " fill="rgb(82,127,210)"/><path d=" M 368 352 L 368 320 C 368 284.654 339.346 256 304 256 C 268.654 256 240 284.654 240 320 L 240 352 C 240 387.346 268.654 416 304 416 L 384 416 L 384 384 L 359.04 384 C 364.792 374.309 367.883 363.27 368 352 Z  M 336 352 C 336 369.673 321.673 384 304 384 C 286.327 384 272 369.673 272 352 L 272 320 C 272 302.327 286.327 288 304 288 C 321.673 288 336 302.327 336 320 L 336 352 L 336 352 Z " fill="rgb(82,127,210)"/><path d=" M 432 384 L 432 256 L 400 256 L 400 400 C 400 408.837 407.163 416 416 416 L 512 416 L 512 384 L 432 384 L 432 384 Z " fill="rgb(82,127,210)"/></g></g></g></g></svg>