<?xml version="1.0" encoding="UTF-8" standalone="no"?><!-- Generator: Gravit.io --><svg xmlns="http://www.w3.org/2000/svg" xmlns:xlink="http://www.w3.org/1999/xlink" style="isolation:isolate" viewBox="0 0 512 512" width="512pt" height="512pt"><defs><clipPath id="_clipPath_e6qm2ahhrW2WUaCArkQbK8YyQlyOmpg0"><rect width="512" height="512"/></clipPath></defs><g clip-path="url(#_clipPath_e6qm2ahhrW2WUaCArkQbK8YyQlyOmpg0)"><g><g><g><path d=" M 286.5 141 L 336.5 141 C 344.784 141 351.5 134.284 351.5 126 C 351.5 117.716 344.784 111 336.5 111 L 286.5 111 C 278.216 111 271.5 117.716 271.5 126 C 271.5 134.284 278.216 141 286.5 141 Z " fill="rgb(82,127,210)"/><path d=" M 497 51 C 485.923 51 20.685 51 15 51 C 6.716 51 0 57.716 0 66 C 0 83.56 0 427.681 0 446 C 0 454.284 6.716 461 15 461 L 497 461 C 505.284 461 512 454.284 512 446 C 512 434.59 512 77.383 512 66 C 512 57.716 505.284 51 497 51 Z  M 30 81 L 111 81 L 111 111 L 30 111 L 30 81 L 30 81 Z  M 70 431 L 30 431 L 30 251 L 70 251 L 70 431 L 70 431 Z  M 70 221 L 30 221 L 30 201 L 70 201 L 70 221 L 70 221 Z  M 207.333 431 L 100 431 L 100 251 L 207.333 251 L 207.333 431 L 207.333 431 Z  M 207.333 221 L 100 221 L 100 201 L 207.333 201 L 207.333 221 L 207.333 221 Z  M 344.667 431 L 237.333 431 L 237.333 251 L 344.667 251 L 344.667 431 L 344.667 431 Z  M 344.667 221 L 237.333 221 L 237.333 201 L 344.667 201 L 344.667 221 L 344.667 221 Z  M 482 431 L 374.667 431 L 374.667 251 L 482 251 L 482 431 L 482 431 Z  M 482 221 L 374.667 221 L 374.667 201 L 482 201 L 482 221 L 482 221 Z  M 482 171 L 30 171 L 30 141 L 126 141 C 134.284 141 141 134.284 141 126 L 141 81 L 482 81 L 482 171 L 482 171 Z " fill="rgb(82,127,210)"/><path d=" M 397 141 L 447 141 C 455.284 141 462 134.284 462 126 C 462 117.716 455.284 111 447 111 L 397 111 C 388.716 111 382 117.716 382 126 C 382 134.284 388.716 141 397 141 Z " fill="rgb(82,127,210)"/><path d=" M 176 141 L 226 141 C 234.284 141 241 134.284 241 126 C 241 117.716 234.284 111 226 111 L 176 111 C 167.716 111 161 117.716 161 126 C 161 134.284 167.716 141 176 141 Z " fill="rgb(82,127,210)"/></g></g></g></g></svg>