<?xml version="1.0" encoding="UTF-8" standalone="no"?><!-- Generator: Gravit.io --><svg xmlns="http://www.w3.org/2000/svg" xmlns:xlink="http://www.w3.org/1999/xlink" style="isolation:isolate" viewBox="0 0 512 512" width="512pt" height="512pt"><defs><clipPath id="_clipPath_rwOgYVXxeHksrJ6G3hGkUI6xHrbV8Zge"><rect width="512" height="512"/></clipPath></defs><g clip-path="url(#_clipPath_rwOgYVXxeHksrJ6G3hGkUI6xHrbV8Zge)"><path d=" M 504.467 328.8 C 508.628 328.8 512 325.428 512 321.267 L 512 115.424 C 512 102.963 501.862 92.825 489.401 92.825 L 257.402 92.825 C 232.695 79.329 206.212 72.469 178.632 72.469 C 163.697 72.469 148.831 74.539 134.448 78.621 C 113.049 84.695 90.212 88.193 66.572 89.018 C 62.414 89.163 59.161 92.651 59.306 96.809 C 59.452 100.967 62.922 104.234 67.098 104.074 C 91.951 103.207 115.996 99.52 138.562 93.114 C 151.606 89.412 165.088 87.535 178.632 87.535 C 203.018 87.535 226.491 93.443 248.467 105.102 L 248.467 383.608 C 246.336 384.106 245.438 384.139 241.42 385.652 C 236.37 387.633 231.816 390.606 228.003 394.337 C 211.962 389.204 195.379 386.596 178.633 386.596 C 163.698 386.596 148.832 388.666 134.449 392.748 C 109.693 399.774 83.128 403.337 55.493 403.337 L 17.577 403.337 C 16.498 403.341 14.88 402.094 15.066 399.173 L 15.066 106.787 C 15.066 105.402 16.193 104.276 17.577 104.276 L 31.073 104.276 C 35.233 104.276 38.606 100.904 38.606 96.743 C 38.606 92.582 35.233 89.21 31.073 89.21 L 17.577 89.21 C 7.885 89.21 0 97.095 0 106.787 L 0 416.932 C 0 429.393 10.138 439.531 22.599 439.531 L 224.749 439.531 C 238.311 437.208 227.505 427.221 232.615 414.128 C 234.984 407.896 239.785 402.847 245.818 400.134 C 246.285 400.061 250.1 397.745 257.285 397.991 C 270.475 398.663 281 409.605 281 422.959 C 281 425.303 280.668 427.642 280.013 429.91 C 278.859 433.907 281.165 438.083 285.162 439.237 C 285.596 439.362 489.401 439.532 489.401 439.532 C 501.862 439.532 512 429.394 512 416.933 L 512 356.861 C 512 352.7 508.628 349.328 504.467 349.328 C 500.306 349.328 496.934 352.7 496.934 356.861 L 496.934 416.933 C 496.934 421.087 493.555 424.466 489.401 424.466 L 296.013 424.466 C 296.33 418.356 294.704 410.189 291.025 403.532 C 289.349 400.574 287.222 397.461 283.544 393.861 C 277.883 388.502 270.988 385.01 263.534 383.603 L 263.534 107.891 L 489.401 107.891 C 493.555 107.891 496.934 111.27 496.934 115.424 L 496.934 321.267 C 496.934 325.427 500.306 328.8 504.467 328.8 L 504.467 328.8 Z  M 22.599 424.466 C 18.884 424.466 15.797 421.761 15.184 418.22 C 15.969 418.327 16.763 418.402 17.577 418.402 L 55.491 418.402 C 84.518 418.402 112.466 414.647 138.561 407.241 C 151.606 403.539 165.087 401.662 178.631 401.662 C 192.316 401.662 205.887 403.581 219.09 407.37 C 218.741 407.773 215.368 417.199 215.96 424.466 L 22.599 424.466 Z " fill="rgb(82,127,210)"/><path d=" M 96.047 326.956 C 96.047 331.117 99.42 334.489 103.58 334.489 C 107.74 334.489 111.113 331.117 111.113 326.956 L 111.113 290.467 L 138.394 329.972 C 140.611 333.173 144.308 334.535 147.809 333.44 C 151.385 332.323 153.695 328.974 153.695 324.835 L 153.127 266.116 C 153.087 261.98 149.722 258.655 145.596 258.655 C 145.571 258.655 145.546 258.655 145.521 258.655 C 141.361 258.695 138.021 262.101 138.061 266.261 L 138.421 303.499 L 109.777 262.022 C 107.904 259.309 104.484 258.132 101.337 259.111 C 98.189 260.092 96.046 263.006 96.046 266.303 L 96.046 326.956 L 96.047 326.956 Z " fill="rgb(82,127,210)"/><path d=" M 104.221 156.382 C 100.061 156.382 96.688 159.754 96.688 163.915 L 96.688 224.682 C 96.688 228.843 100.061 232.215 104.221 232.215 C 108.381 232.215 111.754 228.843 111.754 224.682 L 111.754 200.789 L 138.739 200.789 L 138.739 224.682 C 138.739 228.843 142.112 232.215 146.272 232.215 C 150.432 232.215 153.805 228.843 153.805 224.682 L 153.805 163.915 C 153.805 159.754 150.432 156.382 146.272 156.382 C 142.112 156.382 138.739 159.754 138.739 163.915 L 138.739 185.723 L 111.754 185.723 L 111.754 163.915 C 111.754 159.754 108.381 156.382 104.221 156.382 Z " fill="rgb(82,127,210)"/><path d=" M 75.551 274.276 C 79.711 274.276 83.084 270.904 83.084 266.743 C 83.084 262.582 79.711 259.21 75.551 259.21 L 50.18 259.21 C 46.02 259.21 42.647 262.582 42.647 266.743 L 42.647 326.956 C 42.647 331.117 46.02 334.489 50.18 334.489 L 75.551 334.489 C 79.711 334.489 83.084 331.117 83.084 326.956 C 83.084 322.795 79.711 319.423 75.551 319.423 L 57.713 319.423 L 57.713 304.383 L 73.68 304.383 C 77.84 304.383 81.213 301.011 81.213 296.85 C 81.213 292.689 77.84 289.317 73.68 289.317 L 57.713 289.317 L 57.713 274.276 L 75.551 274.276 Z " fill="rgb(82,127,210)"/><path d=" M 202.231 172.004 C 206.391 172.004 209.764 168.632 209.764 164.471 C 209.764 160.31 206.391 156.938 202.231 156.938 L 176.86 156.938 C 172.7 156.938 169.327 160.31 169.327 164.471 L 169.327 224.683 C 169.327 228.844 172.7 232.216 176.86 232.216 L 202.231 232.216 C 206.391 232.216 209.764 228.844 209.764 224.683 C 209.764 220.522 206.391 217.15 202.231 217.15 L 184.393 217.15 L 184.393 202.11 L 200.361 202.11 C 204.521 202.11 207.894 198.738 207.894 194.577 C 207.894 190.416 204.521 187.044 200.361 187.044 L 184.393 187.044 L 184.393 172.004 L 202.231 172.004 Z " fill="rgb(82,127,210)"/><path d=" M 167.973 325.997 C 167.973 326.499 168.024 326.989 168.118 327.464 C 168.242 329.285 169.015 331.008 170.318 332.302 C 171.729 333.703 173.637 334.488 175.625 334.488 L 175.654 334.488 C 176.159 334.486 188.068 334.44 192.827 334.357 C 210.631 334.046 223.554 318.533 223.554 297.47 C 223.554 275.329 210.957 260.452 192.207 260.452 L 175.506 260.452 C 173.505 260.452 171.587 261.247 170.174 262.664 C 168.761 264.079 167.968 265.999 167.972 267.999 L 167.972 268.045 L 167.972 268.047 L 167.972 325.997 L 167.973 325.997 Z  M 192.207 275.518 C 207.703 275.518 208.488 293.804 208.488 297.47 C 208.488 308.194 203.564 319.1 192.564 319.293 C 190.395 319.331 186.59 319.362 183.133 319.383 C 183.11 312.424 183.082 302.432 183.082 297.405 C 183.082 293.2 183.065 282.76 183.053 275.518 L 192.207 275.518 Z " fill="rgb(82,127,210)"/><path d=" M 47.512 172.347 L 56.691 172.347 L 56.691 225.581 C 56.691 229.742 60.064 233.114 64.224 233.114 C 68.384 233.114 71.757 229.742 71.757 225.581 L 71.757 172.347 L 81.071 172.347 C 85.231 172.347 88.604 168.975 88.604 164.814 C 88.604 160.653 85.231 157.281 81.071 157.281 L 47.512 157.281 C 43.352 157.281 39.979 160.653 39.979 164.814 C 39.979 168.975 43.352 172.347 47.512 172.347 Z " fill="rgb(82,127,210)"/></g></svg>